<?xml version="1.0" encoding="UTF-8" standalone="no"?>
<!-- Created with Inkscape (http://www.inkscape.org/) -->

<svg
   version="1.1"
   id="svg1"
   width="1935.12"
   height="1935.12"
   viewBox="0 0 1935.12 1935.12"
   sodipodi:docname="y81rq-2ktkx.ai"
   xmlns:inkscape="http://www.inkscape.org/namespaces/inkscape"
   xmlns:sodipodi="http://sodipodi.sourceforge.net/DTD/sodipodi-0.dtd"
   xmlns="http://www.w3.org/2000/svg"
   xmlns:svg="http://www.w3.org/2000/svg">
  <defs
     id="defs1">
    <clipPath
       clipPathUnits="userSpaceOnUse"
       id="clipPath2">
      <path
         d="M 0,1451.339 H 1451.339 V 0 H 0 Z"
         transform="translate(-1095.3201,-1211.8186)"
         id="path2" />
    </clipPath>
    <clipPath
       clipPathUnits="userSpaceOnUse"
       id="clipPath4">
      <path
         d="M 0,1451.339 H 1451.339 V 0 H 0 Z"
         transform="translate(-911.51005,-1060.4286)"
         id="path4" />
    </clipPath>
    <clipPath
       clipPathUnits="userSpaceOnUse"
       id="clipPath6">
      <path
         d="M 0,1451.339 H 1451.339 V 0 H 0 Z"
         transform="translate(-798.81999,-1194.9586)"
         id="path6" />
    </clipPath>
    <clipPath
       clipPathUnits="userSpaceOnUse"
       id="clipPath8">
      <path
         d="M 0,1451.339 H 1451.339 V 0 H 0 Z"
         transform="translate(-1110.61,-897.42862)"
         id="path8" />
    </clipPath>
    <clipPath
       clipPathUnits="userSpaceOnUse"
       id="clipPath10">
      <path
         d="M 0,1451.339 H 1451.339 V 0 H 0 Z"
         transform="translate(-1076.13,-1002.7086)"
         id="path10" />
    </clipPath>
    <clipPath
       clipPathUnits="userSpaceOnUse"
       id="clipPath12">
      <path
         d="M 0,1451.339 H 1451.339 V 0 H 0 Z"
         transform="translate(-1097.3202,-922.41863)"
         id="path12" />
    </clipPath>
    <clipPath
       clipPathUnits="userSpaceOnUse"
       id="clipPath14">
      <path
         d="M 0,1451.339 H 1451.339 V 0 H 0 Z"
         transform="translate(-1092.9061,-1213.1631)"
         id="path14" />
    </clipPath>
    <clipPath
       clipPathUnits="userSpaceOnUse"
       id="clipPath16">
      <path
         d="M 0,1451.339 H 1451.339 V 0 H 0 Z"
         transform="translate(-902.1292,-1064.5486)"
         id="path16" />
    </clipPath>
    <clipPath
       clipPathUnits="userSpaceOnUse"
       id="clipPath18">
      <path
         d="M 0,1451.339 H 1451.339 V 0 H 0 Z"
         transform="translate(-841.02002,-838.16862)"
         id="path18" />
    </clipPath>
    <clipPath
       clipPathUnits="userSpaceOnUse"
       id="clipPath20">
      <path
         d="M 0,1451.339 H 1451.339 V 0 H 0 Z"
         transform="translate(-841.02002,-814.87862)"
         id="path20" />
    </clipPath>
    <clipPath
       clipPathUnits="userSpaceOnUse"
       id="clipPath22">
      <path
         d="M 0,1451.339 H 1451.339 V 0 H 0 Z"
         transform="translate(-1023.3,-1088.7386)"
         id="path22" />
    </clipPath>
    <clipPath
       clipPathUnits="userSpaceOnUse"
       id="clipPath24">
      <path
         d="M 0,1451.339 H 1451.339 V 0 H 0 Z"
         transform="translate(-391.95001,-966.21863)"
         id="path24" />
    </clipPath>
    <clipPath
       clipPathUnits="userSpaceOnUse"
       id="clipPath26">
      <path
         d="M 0,1451.339 H 1451.339 V 0 H 0 Z"
         transform="translate(-391.36001,-966.28862)"
         id="path26" />
    </clipPath>
    <clipPath
       clipPathUnits="userSpaceOnUse"
       id="clipPath28">
      <path
         d="M 0,1451.339 H 1451.339 V 0 H 0 Z"
         transform="translate(-386.24001,-967.22862)"
         id="path28" />
    </clipPath>
    <clipPath
       clipPathUnits="userSpaceOnUse"
       id="clipPath30">
      <path
         d="M 0,1451.339 H 1451.339 V 0 H 0 Z"
         transform="translate(-410.36001,-1013.9386)"
         id="path30" />
    </clipPath>
    <clipPath
       clipPathUnits="userSpaceOnUse"
       id="clipPath32">
      <path
         d="M 0,1451.339 H 1451.339 V 0 H 0 Z"
         transform="translate(-993.17005,-1169.8386)"
         id="path32" />
    </clipPath>
    <clipPath
       clipPathUnits="userSpaceOnUse"
       id="clipPath34">
      <path
         d="M 0,1451.339 H 1451.339 V 0 H 0 Z"
         transform="translate(-993.17005,-1169.8386)"
         id="path34" />
    </clipPath>
    <clipPath
       clipPathUnits="userSpaceOnUse"
       id="clipPath36">
      <path
         d="M 0,1451.339 H 1451.339 V 0 H 0 Z"
         transform="translate(-421.77001,-1019.9386)"
         id="path36" />
    </clipPath>
    <clipPath
       clipPathUnits="userSpaceOnUse"
       id="clipPath38">
      <path
         d="M 0,1451.339 H 1451.339 V 0 H 0 Z"
         transform="translate(-432.45001,-949.18862)"
         id="path38" />
    </clipPath>
    <clipPath
       clipPathUnits="userSpaceOnUse"
       id="clipPath40">
      <path
         d="M 0,1451.339 H 1451.339 V 0 H 0 Z"
         transform="translate(-547.29001,-930.27863)"
         id="path40" />
    </clipPath>
    <clipPath
       clipPathUnits="userSpaceOnUse"
       id="clipPath42">
      <path
         d="M 0,1451.339 H 1451.339 V 0 H 0 Z"
         transform="translate(-386.24001,-875.95862)"
         id="path42" />
    </clipPath>
    <clipPath
       clipPathUnits="userSpaceOnUse"
       id="clipPath44">
      <path
         d="M 0,1451.339 H 1451.339 V 0 H 0 Z"
         transform="translate(-548.93002,-929.97863)"
         id="path44" />
    </clipPath>
    <clipPath
       clipPathUnits="userSpaceOnUse"
       id="clipPath46">
      <path
         d="M 0,1451.339 H 1451.339 V 0 H 0 Z"
         transform="translate(-628.47002,-511.90861)"
         id="path46" />
    </clipPath>
    <clipPath
       clipPathUnits="userSpaceOnUse"
       id="clipPath48">
      <path
         d="M 0,1451.339 H 1451.339 V 0 H 0 Z"
         transform="translate(-628.47002,-511.90861)"
         id="path48" />
    </clipPath>
    <clipPath
       clipPathUnits="userSpaceOnUse"
       id="clipPath50">
      <path
         d="M 0,1451.339 H 1451.339 V 0 H 0 Z"
         transform="translate(-624.42032,-512.84124)"
         id="path50" />
    </clipPath>
    <clipPath
       clipPathUnits="userSpaceOnUse"
       id="clipPath52">
      <path
         d="M 0,1451.339 H 1451.339 V 0 H 0 Z"
         transform="translate(-615.63521,-913.01492)"
         id="path52" />
    </clipPath>
    <clipPath
       clipPathUnits="userSpaceOnUse"
       id="clipPath54">
      <path
         d="M 0,1451.339 H 1451.339 V 0 H 0 Z"
         transform="translate(-531.98392,-738.98302)"
         id="path54" />
    </clipPath>
    <clipPath
       clipPathUnits="userSpaceOnUse"
       id="clipPath56">
      <path
         d="M 0,1451.339 H 1451.339 V 0 H 0 Z"
         transform="translate(-305.02011,-284.51858)"
         id="path56" />
    </clipPath>
    <clipPath
       clipPathUnits="userSpaceOnUse"
       id="clipPath58">
      <path
         d="M 0,1451.339 H 1451.339 V 0 H 0 Z"
         transform="translate(-329.61001,-315.52868)"
         id="path58" />
    </clipPath>
    <clipPath
       clipPathUnits="userSpaceOnUse"
       id="clipPath60">
      <path
         d="M 0,1451.339 H 1451.339 V 0 H 0 Z"
         id="path60" />
    </clipPath>
    <clipPath
       clipPathUnits="userSpaceOnUse"
       id="clipPath62">
      <path
         d="M 0,1451.339 H 1451.339 V 0 H 0 Z"
         id="path62" />
    </clipPath>
    <clipPath
       clipPathUnits="userSpaceOnUse"
       id="clipPath64">
      <path
         d="M 0,1451.339 H 1451.339 V 0 H 0 Z"
         transform="translate(-357.18001,-196.14848)"
         id="path64" />
    </clipPath>
    <clipPath
       clipPathUnits="userSpaceOnUse"
       id="clipPath66">
      <path
         d="M 0,1451.339 H 1451.339 V 0 H 0 Z"
         transform="translate(-293.27011,-332.04871)"
         id="path66" />
    </clipPath>
    <clipPath
       clipPathUnits="userSpaceOnUse"
       id="clipPath68">
      <path
         d="M 0,1451.339 H 1451.339 V 0 H 0 Z"
         transform="translate(-361.28011,-317.11853)"
         id="path68" />
    </clipPath>
    <clipPath
       clipPathUnits="userSpaceOnUse"
       id="clipPath70">
      <path
         d="M 0,1451.339 H 1451.339 V 0 H 0 Z"
         id="path70" />
    </clipPath>
    <clipPath
       clipPathUnits="userSpaceOnUse"
       id="clipPath72">
      <path
         d="M 0,1451.339 H 1451.339 V 0 H 0 Z"
         transform="translate(-489.78011,-203.97863)"
         id="path72" />
    </clipPath>
    <clipPath
       clipPathUnits="userSpaceOnUse"
       id="clipPath74">
      <path
         d="M 0,1451.339 H 1451.339 V 0 H 0 Z"
         transform="translate(-520.87001,-258.69863)"
         id="path74" />
    </clipPath>
    <clipPath
       clipPathUnits="userSpaceOnUse"
       id="clipPath76">
      <path
         d="M 0,1451.339 H 1451.339 V 0 H 0 Z"
         id="path76" />
    </clipPath>
    <clipPath
       clipPathUnits="userSpaceOnUse"
       id="clipPath78">
      <path
         d="M 0,1451.339 H 1451.339 V 0 H 0 Z"
         transform="translate(-597.96001,-266.13848)"
         id="path78" />
    </clipPath>
    <clipPath
       clipPathUnits="userSpaceOnUse"
       id="clipPath80">
      <path
         d="M 0,1451.339 H 1451.339 V 0 H 0 Z"
         id="path80" />
    </clipPath>
    <clipPath
       clipPathUnits="userSpaceOnUse"
       id="clipPath82">
      <path
         d="M 0,1451.339 H 1451.339 V 0 H 0 Z"
         id="path82" />
    </clipPath>
    <clipPath
       clipPathUnits="userSpaceOnUse"
       id="clipPath84">
      <path
         d="M 0,1451.339 H 1451.339 V 0 H 0 Z"
         transform="translate(-770.00004,-233.68861)"
         id="path84" />
    </clipPath>
    <clipPath
       clipPathUnits="userSpaceOnUse"
       id="clipPath86">
      <path
         d="M 0,1451.339 H 1451.339 V 0 H 0 Z"
         transform="translate(-791.70999,-249.23858)"
         id="path86" />
    </clipPath>
    <clipPath
       clipPathUnits="userSpaceOnUse"
       id="clipPath88">
      <path
         d="M 0,1451.339 H 1451.339 V 0 H 0 Z"
         transform="translate(-817.27,-256.18861)"
         id="path88" />
    </clipPath>
    <clipPath
       clipPathUnits="userSpaceOnUse"
       id="clipPath90">
      <path
         d="M 0,1451.339 H 1451.339 V 0 H 0 Z"
         transform="translate(-804.54002,-244.97858)"
         id="path90" />
    </clipPath>
    <clipPath
       clipPathUnits="userSpaceOnUse"
       id="clipPath92">
      <path
         d="M 0,1451.339 H 1451.339 V 0 H 0 Z"
         transform="translate(-836.60005,-302.58863)"
         id="path92" />
    </clipPath>
    <clipPath
       clipPathUnits="userSpaceOnUse"
       id="clipPath94">
      <path
         d="M 0,1451.339 H 1451.339 V 0 H 0 Z"
         transform="translate(-937.88005,-245.36851)"
         id="path94" />
    </clipPath>
    <clipPath
       clipPathUnits="userSpaceOnUse"
       id="clipPath96">
      <path
         d="M 0,1451.339 H 1451.339 V 0 H 0 Z"
         transform="translate(-1037.1399,-319.67858)"
         id="path96" />
    </clipPath>
    <clipPath
       clipPathUnits="userSpaceOnUse"
       id="clipPath98">
      <path
         d="M 0,1451.339 H 1451.339 V 0 H 0 Z"
         transform="translate(-1036.2,-286.73858)"
         id="path98" />
    </clipPath>
    <clipPath
       clipPathUnits="userSpaceOnUse"
       id="clipPath100">
      <path
         d="M 0,1451.339 H 1451.339 V 0 H 0 Z"
         id="path100" />
    </clipPath>
    <clipPath
       clipPathUnits="userSpaceOnUse"
       id="clipPath102">
      <path
         d="M 0,1451.339 H 1451.339 V 0 H 0 Z"
         id="path102" />
    </clipPath>
    <clipPath
       clipPathUnits="userSpaceOnUse"
       id="clipPath104">
      <path
         d="M 0,1451.339 H 1451.339 V 0 H 0 Z"
         id="path104" />
    </clipPath>
    <clipPath
       clipPathUnits="userSpaceOnUse"
       id="clipPath106">
      <path
         d="M 0,1451.339 H 1451.339 V 0 H 0 Z"
         transform="translate(-295.38001,-360.15848)"
         id="path106" />
    </clipPath>
    <clipPath
       clipPathUnits="userSpaceOnUse"
       id="clipPath108">
      <path
         d="M 0,1451.339 H 1451.339 V 0 H 0 Z"
         transform="translate(-319.21001,-399.16853)"
         id="path108" />
    </clipPath>
    <clipPath
       clipPathUnits="userSpaceOnUse"
       id="clipPath110">
      <path
         d="M 0,1451.339 H 1451.339 V 0 H 0 Z"
         transform="translate(-293.7901,-332.86853)"
         id="path110" />
    </clipPath>
    <clipPath
       clipPathUnits="userSpaceOnUse"
       id="clipPath112">
      <path
         d="M 0,1451.339 H 1451.339 V 0 H 0 Z"
         transform="translate(-317.71001,-340.73858)"
         id="path112" />
    </clipPath>
    <clipPath
       clipPathUnits="userSpaceOnUse"
       id="clipPath114">
      <path
         d="M 0,1451.339 H 1451.339 V 0 H 0 Z"
         transform="translate(-330.69001,-366.43861)"
         id="path114" />
    </clipPath>
    <clipPath
       clipPathUnits="userSpaceOnUse"
       id="clipPath116">
      <path
         d="M 0,1451.339 H 1451.339 V 0 H 0 Z"
         transform="translate(-343.28011,-357.73861)"
         id="path116" />
    </clipPath>
    <clipPath
       clipPathUnits="userSpaceOnUse"
       id="clipPath118">
      <path
         d="M 0,1451.339 H 1451.339 V 0 H 0 Z"
         transform="translate(-360.03011,-348.59858)"
         id="path118" />
    </clipPath>
    <clipPath
       clipPathUnits="userSpaceOnUse"
       id="clipPath120">
      <path
         d="M 0,1451.339 H 1451.339 V 0 H 0 Z"
         transform="translate(-376.88001,-414.40854)"
         id="path120" />
    </clipPath>
    <clipPath
       clipPathUnits="userSpaceOnUse"
       id="clipPath122">
      <path
         d="M 0,1451.339 H 1451.339 V 0 H 0 Z"
         id="path122" />
    </clipPath>
    <clipPath
       clipPathUnits="userSpaceOnUse"
       id="clipPath124">
      <path
         d="M 0,1451.339 H 1451.339 V 0 H 0 Z"
         id="path124" />
    </clipPath>
    <clipPath
       clipPathUnits="userSpaceOnUse"
       id="clipPath126">
      <path
         d="M 0,1451.339 H 1451.339 V 0 H 0 Z"
         id="path126" />
    </clipPath>
    <clipPath
       clipPathUnits="userSpaceOnUse"
       id="clipPath128">
      <path
         d="M 0,1451.339 H 1451.339 V 0 H 0 Z"
         id="path128" />
    </clipPath>
    <clipPath
       clipPathUnits="userSpaceOnUse"
       id="clipPath130">
      <path
         d="M 0,1451.339 H 1451.339 V 0 H 0 Z"
         id="path130" />
    </clipPath>
    <clipPath
       clipPathUnits="userSpaceOnUse"
       id="clipPath132">
      <path
         d="M 0,1451.339 H 1451.339 V 0 H 0 Z"
         transform="translate(-560.63002,-343.19858)"
         id="path132" />
    </clipPath>
    <clipPath
       clipPathUnits="userSpaceOnUse"
       id="clipPath134">
      <path
         d="M 0,1451.339 H 1451.339 V 0 H 0 Z"
         id="path134" />
    </clipPath>
    <clipPath
       clipPathUnits="userSpaceOnUse"
       id="clipPath136">
      <path
         d="M 0,1451.339 H 1451.339 V 0 H 0 Z"
         transform="translate(-751.86999,-401.58864)"
         id="path136" />
    </clipPath>
    <clipPath
       clipPathUnits="userSpaceOnUse"
       id="clipPath138">
      <path
         d="M 0,1451.339 H 1451.339 V 0 H 0 Z"
         transform="translate(-805.36,-403.58859)"
         id="path138" />
    </clipPath>
    <clipPath
       clipPathUnits="userSpaceOnUse"
       id="clipPath140">
      <path
         d="M 0,1451.339 H 1451.339 V 0 H 0 Z"
         id="path140" />
    </clipPath>
    <clipPath
       clipPathUnits="userSpaceOnUse"
       id="clipPath142">
      <path
         d="M 0,1451.339 H 1451.339 V 0 H 0 Z"
         transform="translate(-869.8201,-447.35859)"
         id="path142" />
    </clipPath>
    <clipPath
       clipPathUnits="userSpaceOnUse"
       id="clipPath144">
      <path
         d="M 0,1451.339 H 1451.339 V 0 H 0 Z"
         id="path144" />
    </clipPath>
    <clipPath
       clipPathUnits="userSpaceOnUse"
       id="clipPath146">
      <path
         d="M 0,1451.339 H 1451.339 V 0 H 0 Z"
         transform="translate(-964.24,-428.08861)"
         id="path146" />
    </clipPath>
    <clipPath
       clipPathUnits="userSpaceOnUse"
       id="clipPath148">
      <path
         d="M 0,1451.339 H 1451.339 V 0 H 0 Z"
         transform="translate(-1031.9601,-322.96861)"
         id="path148" />
    </clipPath>
    <clipPath
       clipPathUnits="userSpaceOnUse"
       id="clipPath150">
      <path
         d="M 0,1451.339 H 1451.339 V 0 H 0 Z"
         transform="translate(-1036.35,-349.52873)"
         id="path150" />
    </clipPath>
    <clipPath
       clipPathUnits="userSpaceOnUse"
       id="clipPath152">
      <path
         d="M 0,1451.339 H 1451.339 V 0 H 0 Z"
         transform="translate(-1038.4399,-403.87854)"
         id="path152" />
    </clipPath>
    <clipPath
       clipPathUnits="userSpaceOnUse"
       id="clipPath154">
      <path
         d="M 0,1451.339 H 1451.339 V 0 H 0 Z"
         transform="translate(-1076.6301,-338.32861)"
         id="path154" />
    </clipPath>
    <clipPath
       clipPathUnits="userSpaceOnUse"
       id="clipPath156">
      <path
         d="M 0,1451.339 H 1451.339 V 0 H 0 Z"
         transform="translate(-1108.45,-444.54871)"
         id="path156" />
    </clipPath>
    <clipPath
       clipPathUnits="userSpaceOnUse"
       id="clipPath158">
      <path
         d="M 0,1451.339 H 1451.339 V 0 H 0 Z"
         transform="translate(-1071.7101,-419.41854)"
         id="path158" />
    </clipPath>
    <clipPath
       clipPathUnits="userSpaceOnUse"
       id="clipPath160">
      <path
         d="M 0,1451.339 H 1451.339 V 0 H 0 Z"
         transform="translate(-285.18001,-206.24858)"
         id="path160" />
    </clipPath>
    <clipPath
       clipPathUnits="userSpaceOnUse"
       id="clipPath162">
      <path
         d="M 0,1451.339 H 1451.339 V 0 H 0 Z"
         transform="translate(-304.08001,-195.71858)"
         id="path162" />
    </clipPath>
    <clipPath
       clipPathUnits="userSpaceOnUse"
       id="clipPath164">
      <path
         d="M 0,1451.339 H 1451.339 V 0 H 0 Z"
         transform="translate(-361.84001,-192.6786)"
         id="path164" />
    </clipPath>
    <clipPath
       clipPathUnits="userSpaceOnUse"
       id="clipPath166">
      <path
         d="M 0,1451.339 H 1451.339 V 0 H 0 Z"
         transform="translate(-471.33001,-186.3486)"
         id="path166" />
    </clipPath>
    <clipPath
       clipPathUnits="userSpaceOnUse"
       id="clipPath168">
      <path
         d="M 0,1451.339 H 1451.339 V 0 H 0 Z"
         transform="translate(-522.45001,-192.71858)"
         id="path168" />
    </clipPath>
    <clipPath
       clipPathUnits="userSpaceOnUse"
       id="clipPath170">
      <path
         d="M 0,1451.339 H 1451.339 V 0 H 0 Z"
         transform="translate(-607.53002,-197.06858)"
         id="path170" />
    </clipPath>
    <clipPath
       clipPathUnits="userSpaceOnUse"
       id="clipPath172">
      <path
         d="M 0,1451.339 H 1451.339 V 0 H 0 Z"
         transform="translate(-644.63992,-194.3685)"
         id="path172" />
    </clipPath>
    <clipPath
       clipPathUnits="userSpaceOnUse"
       id="clipPath174">
      <path
         d="M 0,1451.339 H 1451.339 V 0 H 0 Z"
         transform="translate(-670.89992,-217.06861)"
         id="path174" />
    </clipPath>
    <clipPath
       clipPathUnits="userSpaceOnUse"
       id="clipPath176">
      <path
         d="M 0,1451.339 H 1451.339 V 0 H 0 Z"
         transform="translate(-752.52002,-197.75873)"
         id="path176" />
    </clipPath>
    <clipPath
       clipPathUnits="userSpaceOnUse"
       id="clipPath178">
      <path
         d="M 0,1451.339 H 1451.339 V 0 H 0 Z"
         transform="translate(-771.57009,-229.33861)"
         id="path178" />
    </clipPath>
    <clipPath
       clipPathUnits="userSpaceOnUse"
       id="clipPath180">
      <path
         d="M 0,1451.339 H 1451.339 V 0 H 0 Z"
         transform="translate(-787.16994,-231.26873)"
         id="path180" />
    </clipPath>
    <clipPath
       clipPathUnits="userSpaceOnUse"
       id="clipPath182">
      <path
         d="M 0,1451.339 H 1451.339 V 0 H 0 Z"
         transform="translate(-798.71004,-231.74858)"
         id="path182" />
    </clipPath>
    <clipPath
       clipPathUnits="userSpaceOnUse"
       id="clipPath184">
      <path
         d="M 0,1451.339 H 1451.339 V 0 H 0 Z"
         transform="translate(-791.70999,-216.38851)"
         id="path184" />
    </clipPath>
    <clipPath
       clipPathUnits="userSpaceOnUse"
       id="clipPath186">
      <path
         d="M 0,1451.339 H 1451.339 V 0 H 0 Z"
         transform="translate(-877.58005,-232.13851)"
         id="path186" />
    </clipPath>
    <clipPath
       clipPathUnits="userSpaceOnUse"
       id="clipPath188">
      <path
         d="M 0,1451.339 H 1451.339 V 0 H 0 Z"
         transform="translate(-904.77002,-239.28871)"
         id="path188" />
    </clipPath>
    <clipPath
       clipPathUnits="userSpaceOnUse"
       id="clipPath190">
      <path
         d="M 0,1451.339 H 1451.339 V 0 H 0 Z"
         transform="translate(-927.72002,-203.73863)"
         id="path190" />
    </clipPath>
    <clipPath
       clipPathUnits="userSpaceOnUse"
       id="clipPath192">
      <path
         d="M 0,1451.339 H 1451.339 V 0 H 0 Z"
         transform="translate(-951.7,-233.96858)"
         id="path192" />
    </clipPath>
    <clipPath
       clipPathUnits="userSpaceOnUse"
       id="clipPath194">
      <path
         d="M 0,1451.339 H 1451.339 V 0 H 0 Z"
         transform="translate(-965.4199,-230.58863)"
         id="path194" />
    </clipPath>
    <clipPath
       clipPathUnits="userSpaceOnUse"
       id="clipPath196">
      <path
         d="M 0,1451.339 H 1451.339 V 0 H 0 Z"
         transform="translate(-1065.01,-232.10858)"
         id="path196" />
    </clipPath>
    <clipPath
       clipPathUnits="userSpaceOnUse"
       id="clipPath198">
      <path
         d="M 0,1451.339 H 1451.339 V 0 H 0 Z"
         transform="translate(-1071.6201,-226.91858)"
         id="path198" />
    </clipPath>
    <clipPath
       clipPathUnits="userSpaceOnUse"
       id="clipPath200">
      <path
         d="M 0,1451.339 H 1451.339 V 0 H 0 Z"
         id="path200" />
    </clipPath>
  </defs>
  <sodipodi:namedview
     id="namedview1"
     pagecolor="#ffffff"
     bordercolor="#000000"
     borderopacity="0.25"
     inkscape:showpageshadow="2"
     inkscape:pageopacity="0.0"
     inkscape:pagecheckerboard="0"
     inkscape:deskcolor="#d1d1d1">
    <inkscape:page
       x="0"
       y="0"
       inkscape:label="1"
       id="page1"
       width="1935.12"
       height="1935.12"
       margin="232.35867 453.21335 182.45334 320.70667"
       bleed="0" />
  </sodipodi:namedview>
  <g
     id="layer-MC0"
     inkscape:groupmode="layer"
     inkscape:label="LOGO">
    <path
       id="path1"
       d="m 0,0 c -40.26,19.04 -85.26,29.68 -132.75,29.68 -60.08,0 -116.19,-17.04 -163.75,-46.54 -51.61,25.53 -109.74,39.88 -171.22,39.88 -106.34,0 -202.63,-42.92 -272.54,-112.38 101.46,117.6 251.59,192.04 419.11,192.04 C -201.41,102.68 -90.55,64.65 0,0"
       style="fill:#e172a3;fill-opacity:1;fill-rule:nonzero;stroke:none"
       transform="matrix(1.3333333,0,0,-1.3333333,1460.4268,319.36187)"
       clip-path="url(#clipPath2)" />
    <path
       id="path3"
       d="m 0,0 c 0,-36.53 -29.61,-66.13 -66.13,-66.13 -36.52,0 -66.12,29.6 -66.12,66.13 0,36.52 29.6,66.12 66.12,66.12 C -29.61,66.12 0,36.52 0,0"
       style="fill:#dfb3be;fill-opacity:1;fill-rule:nonzero;stroke:none"
       transform="matrix(1.3333333,0,0,-1.3333333,1215.3467,521.2152)"
       clip-path="url(#clipPath4)" />
    <path
       id="path5"
       d="m 0,0 c 12.521,7.766 25.64,14.66 39.263,20.615 -54.447,27.152 -115.855,42.428 -180.831,42.428 -114.385,0 -217.711,-47.337 -291.468,-123.484 -3.63,-3.969 -7.209,-7.985 -10.724,-12.059 69.91,69.46 166.2,112.38 272.54,112.38 C -109.74,39.88 -51.61,25.53 0,0"
       style="fill:#dfb3be;fill-opacity:1;fill-rule:nonzero;stroke:none"
       transform="matrix(1.3333333,0,0,-1.3333333,1065.0933,341.84187)"
       clip-path="url(#clipPath6)" />
    <path
       id="path7"
       d="m 0,0 c 0,-210.77 -170.87,-381.63 -381.64,-381.63 -30.55,0 -60.26,3.59 -88.73,10.38 h 0.04 c 18.55,-2.64 37.52,-4 56.8,-4 221.05,0 400.24,179.19 400.24,400.24 0,48.83 -8.75,95.63 -24.77,138.89 -0.12,1.08 -0.26,2.16 -0.4,3.24 C -13.82,116.65 0,59.94 0,0"
       style="fill:#e172a3;fill-opacity:1;fill-rule:nonzero;stroke:none"
       transform="matrix(1.3333333,0,0,-1.3333333,1480.8133,738.54853)"
       clip-path="url(#clipPath8)" />
    <path
       id="path9"
       d="m 0,0 c 0,-195.69 -117.95,-363.83 -286.64,-437.19 48.74,23.54 92.83,60.76 102.01,119.32 11.56,73.66 -124.26,87.68 -124.26,87.68 163.89,0 297.54,129.47 304.22,291.72 0.37,-0.97 0.74,-1.95 1.09,-2.93 C -1.21,39.4 0,19.84 0,0"
       style="fill:#e5dfe4;fill-opacity:1;fill-rule:nonzero;stroke:none"
       transform="matrix(1.3333333,0,0,-1.3333333,1434.84,598.1752)"
       clip-path="url(#clipPath10)" />
    <path
       id="path11"
       d="m 0,0 c 0,-221.05 -179.19,-400.24 -400.24,-400.24 -19.28,0 -38.25,1.36 -56.8,4 2.08,0.16 80.3,6.07 149.21,39.34 168.69,73.36 286.64,241.5 286.64,437.19 0,19.84 -1.21,39.4 -3.58,58.6 C -8.75,95.63 0,48.83 0,0"
       style="fill:#dfb3be;fill-opacity:1;fill-rule:nonzero;stroke:none"
       transform="matrix(1.3333333,0,0,-1.3333333,1463.0935,705.22853)"
       clip-path="url(#clipPath12)" />
    <path
       id="path13"
       d="m 0,0 c -44.572,30.79 -98.621,48.839 -156.893,48.839 -61.774,0 -118.81,-20.272 -164.832,-54.517 9.566,-3.813 18.947,-7.99 28.118,-12.526 47.56,29.5 103.67,46.54 163.75,46.54 C -83.5,28.336 -39.519,18.193 0,0"
       style="fill:#e5dfe4;fill-opacity:1;fill-rule:nonzero;stroke:none"
       transform="matrix(1.3333333,0,0,-1.3333333,1457.2081,317.5692)"
       clip-path="url(#clipPath14)" />
    <path
       id="path15"
       d="m 0,0 c 0,-33.748 -27.358,-61.106 -61.106,-61.106 -33.748,0 -61.107,27.358 -61.107,61.106 0,33.748 27.359,61.106 61.107,61.106 C -27.358,61.106 0,33.748 0,0"
       style="fill:#e172a3;fill-opacity:1;fill-rule:nonzero;stroke:none"
       transform="matrix(1.3333333,0,0,-1.3333333,1202.8389,515.72187)"
       clip-path="url(#clipPath16)" />
    <path
       id="path17"
       d="m 0,0 c -302.24,-74.15 -256.89,-235.87 -256.19,-238.3 -1.05,3.18 -88.1,269.66 201.18,335.71 5.05,1.15 10,2.33 14.84,3.55 h 0.02 c 1.89,0.22 129.45,14.84 167.62,49.04 31.84,28.54 47.37,70.37 54.81,100.57 6.13,17.07 6.72,29.99 6.65,35.24 C 189.84,259.96 191.37,46.95 0,0"
       style="fill:#e172a3;fill-opacity:1;fill-rule:nonzero;stroke:none"
       transform="matrix(1.3333333,0,0,-1.3333333,1121.36,817.56187)"
       clip-path="url(#clipPath18)" />
    <path
       id="path19"
       d="m 0,0 c -274.43,-60.25 -256.18,-215.04 -256.18,-215.04 0,0 0,0.01 -0.01,0.03 -0.7,2.43 -46.05,164.15 256.19,238.3 191.37,46.95 189.84,259.96 188.93,285.81 -0.01,0.36 -0.02,0.68 -0.03,0.96 -0.02,0.44 -0.04,0.8 -0.05,1.06 -0.01,0.16 -0.02,0.28 -0.02,0.37 -0.01,0.12 -0.01,0.18 -0.01,0.18 C 188.82,311.67 254.23,55.82 0,0"
       style="fill:#dfb3be;fill-opacity:1;fill-rule:nonzero;stroke:#dfb3be;stroke-width:1;stroke-linecap:butt;stroke-linejoin:miter;stroke-miterlimit:10;stroke-dasharray:none;stroke-opacity:1"
       transform="matrix(1.3333333,0,0,-1.3333333,1121.36,848.6152)"
       clip-path="url(#clipPath20)" />
    <path
       id="path21"
       d="m 0,0 c -7.44,-30.2 -22.97,-72.03 -54.81,-100.57 -38.17,-34.2 -165.73,-48.82 -167.62,-49.04 C -64.54,-110.22 -15.22,-42.35 0,0"
       style="fill:#e5dfe4;fill-opacity:1;fill-rule:nonzero;stroke:none"
       transform="matrix(1.3333333,0,0,-1.3333333,1364.4,483.46853)"
       clip-path="url(#clipPath22)" />
    <path
       id="path23"
       d="m 0,0 c -0.33,0.07 -2.39,0.51 -5.67,1 -0.01,0.01 -0.02,0.01 -0.04,0.01 -13.36,2.91 -45.69,13.28 -50.38,45.96 -5.33,37.08 19.52,97.14 21.02,100.75 0.02,0.05 0.04,0.09 0.05,0.12 l 0.01,0.01 0.01,0.01 C -35.52,146.28 -54.33,88.82 -49.29,51.06 -45.04,19.18 -1.63,0.69 0,0"
       style="fill:#e5dfe4;fill-opacity:1;fill-rule:nonzero;stroke:none"
       transform="matrix(1.3333333,0,0,-1.3333333,522.6,646.82853)"
       clip-path="url(#clipPath24)" />
    <path
       id="path25"
       d="m 0,0 c -6.41,0.69 -59,5.13 -75.76,-32.25 -19.67,-43.83 -8.66,-116.02 -8.19,-119.06 -0.66,3.11 -17.13,81.81 2.57,125.7 14.6,32.55 60.11,28.95 76.26,26.55 0.02,0 0.03,0 0.04,-0.01 C -2.67,0.41 -0.89,0.14 0,0"
       style="fill:#e5dfe4;fill-opacity:1;fill-rule:nonzero;stroke:none"
       transform="matrix(1.3333333,0,0,-1.3333333,521.81333,646.7352)"
       clip-path="url(#clipPath26)" />
    <path
       id="path27"
       d="m 0,0 c -16.15,2.4 -61.66,6 -76.26,-26.55 -19.7,-43.89 -3.23,-122.59 -2.57,-125.7 0,-0.02 0,-0.03 0.01,-0.04 v -0.04 c -0.46,0.94 -17.04,35.32 -12.95,125.22 1.53,33.7 -53.94,61.84 -53.94,61.84 0,0 43.11,-1.83 63.38,21.69 17.29,20.07 51.04,86.5 52.97,90.29 C -30.86,143.1 -55.71,83.04 -50.38,45.96 -45.69,13.28 -13.36,2.91 0,0"
       style="fill:#e5d2a7;fill-opacity:1;fill-rule:nonzero;stroke:none"
       transform="matrix(1.3333333,0,0,-1.3333333,514.98667,645.48187)"
       clip-path="url(#clipPath28)" />
    <path
       id="path29"
       d="M 0,0 C 0,-17.71 5.52,-34.13 14.95,-47.63 -71.73,-21.36 -50.38,25.91 35.88,68.5 14.2,53.46 0,28.39 0,0"
       style="fill:#e5dfe4;fill-opacity:1;fill-rule:nonzero;stroke:none"
       transform="matrix(1.3333333,0,0,-1.3333333,547.14667,583.20187)"
       clip-path="url(#clipPath30)" />
    <path
       id="path31"
       d="m 0,0 c -185.87,-20.58 -319.41,-49.4 -394.76,-87.41 -9.29,-4.67 -17.69,-9.5 -25.2,-14.46 -3.69,-2.44 -7.17,-4.92 -10.42,-7.42 -41.04,-31.61 -47.54,-68.65 -16.88,-111.55 -0.29,-0.25 -0.58,-0.47 -0.87,-0.7 -19.25,3.23 -73.82,66.32 6.92,125.2 3.23,2.36 6.67,4.7 10.34,7.04 7.13,4.54 15.12,9.04 24.04,13.46 C -338.37,-41.88 -214.78,-12.09 0,0"
       style="fill:#e5dfe4;fill-opacity:1;fill-rule:nonzero;stroke:none"
       transform="matrix(1.3333333,0,0,-1.3333333,1324.2267,375.3352)"
       clip-path="url(#clipPath32)" />
    <path
       id="path33"
       d="m 0,0 c -214.78,-12.09 -338.37,-41.88 -406.83,-75.84 -8.92,-4.42 -16.91,-8.92 -24.04,-13.46 -3.67,-2.34 -7.11,-4.68 -10.34,-7.04 -80.74,-58.88 -26.17,-121.97 -6.92,-125.2 -0.01,-0.02 -0.03,-0.03 -0.05,-0.04 -25.44,1.58 -47.84,3.88 -67.37,6.82 -20.81,16.12 -34.2,41.36 -34.2,69.73 0,29.29 14.27,55.24 36.25,71.28 1.51,1.11 3.05,2.16 4.63,3.16 h 0.01 c 2.52,1 5.07,2 7.65,2.99 h 0.02 c 8.87,3.4 18.15,6.73 27.82,9.99 h 0.01 C -356.56,-18.27 -183.8,9.86 0,0"
       style="fill:#dfb3be;fill-opacity:1;fill-rule:nonzero;stroke:none"
       transform="matrix(1.3333333,0,0,-1.3333333,1324.2267,375.3352)"
       clip-path="url(#clipPath34)" />
    <path
       id="path35"
       d="m 0,0 c 0,-23.11 9.41,-44.02 24.6,-59.12 -7.63,1.71 -14.64,3.54 -21.06,5.49 -9.43,13.5 -14.95,29.92 -14.95,47.63 0,28.39 14.2,53.46 35.88,68.5 2.99,1.48 6.05,2.95 9.2,4.41 C 13.24,51.73 0,27.42 0,0"
       style="fill:#dfb3be;fill-opacity:1;fill-rule:nonzero;stroke:none"
       transform="matrix(1.3333333,0,0,-1.3333333,562.36,575.20187)"
       clip-path="url(#clipPath36)" />
    <path
       id="path37"
       d="M 0,0 C -33.38,-5.92 -59.45,-32.94 -63.96,-66.78 -119.06,1.21 -105.91,14.48 0,0"
       style="fill:#dfb3be;fill-opacity:1;fill-rule:nonzero;stroke:none"
       transform="matrix(1.3333333,0,0,-1.3333333,576.6,669.5352)"
       clip-path="url(#clipPath38)" />
    <path
       id="path39"
       d="m 0,0 c -5.72,-1.18 -11.28,-2.81 -16.63,-4.84 -1.31,-0.49 -2.61,-1.02 -3.9,-1.56 -5.39,-2.29 -10.57,-4.99 -15.48,-8.07 v -0.01 c -31.02,-19.45 -51.65,-53.94 -51.65,-93.26 0,-8.59 0.98,-16.94 2.85,-24.97 0.17,-0.75 0.35,-1.5 0.54,-2.24 0.31,-1.24 0.65,-2.46 1.01,-3.67 2.39,-8.22 5.72,-16.04 9.87,-23.33 -8.14,8.5 -17.16,17.59 -24.43,25.27 -0.87,0.92 -1.74,1.83 -2.6,2.74 l -0.01,0.01 c -1.36,1.44 -2.7,2.86 -4.05,4.28 -15.39,16.28 -29.23,31.06 -41.46,44.43 -2.46,7.6 -3.79,15.72 -3.79,24.14 0,37.02 25.65,68.05 60.15,76.28 7.88,-1.22 16.16,-2.55 24.86,-3.99 10.3,-1.71 21.18,-3.57 32.65,-5.56 h 0.01 c 0.91,-0.16 1.82,-0.32 2.75,-0.48 h 0.01 C -19.92,3.53 -10.16,1.81 0,0"
       style="fill:#e5dfe4;fill-opacity:1;fill-rule:nonzero;stroke:none"
       transform="matrix(1.3333333,0,0,-1.3333333,729.72,694.74853)"
       clip-path="url(#clipPath40)" />
    <path
       id="path41"
       d="m 0,0 c 0,-5.47 0.56,-10.81 1.62,-15.96 -7.18,8.05 -13.65,15.51 -19.37,22.41 4.51,33.84 30.58,60.86 63.96,66.78 0.99,-0.14 1.99,-0.28 3,-0.42 C 20.36,61.22 0,32.99 0,0"
       style="fill:#e5dfe4;fill-opacity:1;fill-rule:nonzero;stroke:none"
       transform="matrix(1.3333333,0,0,-1.3333333,514.98667,767.1752)"
       clip-path="url(#clipPath42)" />
    <path
       id="path43"
       d="m 0,0 c -5.34,-2.13 -10.5,-4.61 -15.45,-7.42 -1.36,-0.76 -2.7,-1.55 -4.02,-2.37 -5.09,-3.12 -9.94,-6.59 -14.52,-10.36 -28.61,-23.58 -46.84,-59.28 -46.84,-99.25 0,-4.37 0.22,-8.69 0.64,-12.95 0.03,-0.27 0.06,-0.53 0.09,-0.79 0.2,-1.95 0.45,-3.89 0.75,-5.82 1.31,-8.61 3.48,-16.93 6.41,-24.89 -0.68,0.72 -1.38,1.45 -2.07,2.18 0,0 -0.02,0.01 -0.02,0.02 -4.15,7.29 -7.48,15.11 -9.87,23.33 -0.36,1.21 -0.7,2.43 -1.01,3.67 -0.19,0.74 -0.37,1.49 -0.54,2.24 -1.87,8.03 -2.85,16.38 -2.85,24.97 0,39.32 20.63,73.81 51.65,93.26 v 0.01 c 4.91,3.08 10.09,5.78 15.48,8.07 1.29,0.54 2.59,1.07 3.9,1.56 5.35,2.03 10.91,3.66 16.63,4.84 C -1.09,0.2 -0.55,0.1 0,0"
       style="fill:#dfb3be;fill-opacity:1;fill-rule:nonzero;stroke:none"
       transform="matrix(1.3333333,0,0,-1.3333333,731.90667,695.14853)"
       clip-path="url(#clipPath44)" />
    <path
       id="path45"
       d="M 0,0 C -210.82,59.74 -251.22,289.93 -156.05,243.56 -236.52,254.22 -168.84,48.25 0,0"
       style="fill:#e5dfe4;fill-opacity:1;fill-rule:nonzero;stroke:none"
       transform="matrix(1.3333333,0,0,-1.3333333,837.96,1252.5752)"
       clip-path="url(#clipPath46)" />
    <path
       id="path47"
       d="m 0,0 c -250.946,42.843 -355.921,293.563 -251.562,336.151 0.091,0.038 0.173,-0.07 0.111,-0.147 C -314.669,257.211 -211.144,47.432 0,0"
       style="fill:#e172a3;fill-opacity:1;fill-rule:nonzero;stroke:none"
       transform="matrix(1.3333333,0,0,-1.3333333,837.96,1252.5752)"
       clip-path="url(#clipPath48)" />
    <path
       id="path49"
       d="m 0,0 c -208.569,49.222 -310.364,257.089 -247.262,335.244 0.046,0.057 0.135,0.057 0.18,-0.002 24.517,-32.072 56.23,-62.659 94.241,-91.967 0.109,-0.085 0.005,-0.246 -0.12,-0.187 C -246.298,287.161 -206.572,61.507 0.059,0.224 0.202,0.182 0.145,-0.034 0,0"
       style="fill:#dfb3be;fill-opacity:1;fill-rule:nonzero;stroke:none"
       transform="matrix(1.3333333,0,0,-1.3333333,832.5604,1251.3317)"
       clip-path="url(#clipPath50)" />
    <path
       id="path51"
       d="M 0,0 C 8.588,-5.018 11.482,-16.048 6.464,-24.637 1.445,-33.225 -9.585,-36.118 -18.173,-31.1 -26.761,-26.082 -37.633,5.092 -53.106,10.172 -67.591,14.928 -8.588,5.018 0,0"
       style="fill:#e172a3;fill-opacity:1;fill-rule:nonzero;stroke:none"
       transform="matrix(1.3333333,0,0,-1.3333333,820.84693,717.7668)"
       clip-path="url(#clipPath52)" />
    <path
       id="path53"
       d="m 0,0 c 7.229,-6.832 7.552,-18.231 0.72,-25.46 -6.831,-7.23 -18.23,-7.552 -25.46,-0.72 -7.229,6.831 -10.764,39.657 -24.686,48.107 C -62.459,29.838 -7.23,6.832 0,0"
       style="fill:#e172a3;fill-opacity:1;fill-rule:nonzero;stroke:none"
       transform="matrix(1.3333333,0,0,-1.3333333,709.31187,949.80933)"
       clip-path="url(#clipPath54)" />
  </g>
  <g
     id="layer-MC1"
     inkscape:groupmode="layer"
     inkscape:label="文字">
    <path
       id="path55"
       d="m 0,0 c 1.18,-0.9 2.42,-2.22 3.74,-3.96 1.31,-1.74 2.23,-3.25 2.75,-4.54 3.28,2.58 5.69,5.78 7.23,9.61 1.54,3.83 2.59,8.23 3.15,13.19 0.55,4.96 0.86,10.49 0.93,16.61 H 7.87 C 7.8,25.89 7.6,21.45 7.28,17.58 6.95,13.72 6.25,10.34 5.16,7.44 4.08,4.54 2.36,2.06 0,0"
       style="fill:#e5d2a7;fill-opacity:1;fill-rule:nonzero;stroke:none"
       transform="matrix(1.3333333,0,0,-1.3333333,406.69347,1555.7619)"
       clip-path="url(#clipPath56)" />
    <path
       id="path57"
       d="m 0,0 v -15.55 c 0,-2 -0.31,-3.55 -0.94,-4.64 -0.62,-1.09 -1.36,-1.9 -2.21,-2.41 0.59,-0.78 1.16,-1.74 1.72,-2.9 0.56,-1.16 1.07,-2.37 1.53,-3.62 0.34,-0.95 0.59,-1.79 0.75,-2.53 l 0.13,-0.71 c 0.46,0.64 1.18,1.4 2.16,2.27 0.99,0.87 2.64,2.11 4.97,3.72 2.33,1.61 5.72,3.77 10.18,6.47 -0.39,0.97 -0.84,2.25 -1.33,3.86 -0.49,1.61 -0.9,3.06 -1.23,4.35 l -6,-3.24 V 0 Z"
       style="fill:#e5d2a7;fill-opacity:1;fill-rule:nonzero;stroke:none"
       transform="matrix(1.3333333,0,0,-1.3333333,439.48,1514.4151)"
       clip-path="url(#clipPath58)" />
    <path
       id="path59"
       d="m 308.86,318.519 h 33.73 v 9.09 h -33.73 z"
       style="fill:#e5d2a7;fill-opacity:1;fill-rule:nonzero;stroke:none"
       transform="matrix(1.3333333,0,0,-1.3333333,0,1935.12)"
       clip-path="url(#clipPath60)" />
    <path
       id="path61"
       d="m 341.54,217.549 h -22.7 v 18.55 h 22.7 z m 12.43,18.55 h 18.46 v 11.2 h -18.46 v 17.97 h -12.43 v -17.97 h -22.7 v 17.97 H 306.5 v -17.97 h -17.87 v -11.2 h 17.87 v -18.55 h -21.32 v -0.9 c 7.45,-3.94 15.12,-7.4 23.02,-10.4 h 67.29 v 11.3 h -21.52 z"
       style="fill:#e5d2a7;fill-opacity:1;fill-rule:nonzero;stroke:none"
       transform="matrix(1.3333333,0,0,-1.3333333,0,1935.12)"
       clip-path="url(#clipPath62)" />
    <path
       id="path63"
       d="M 0,0 C -3.39,2.48 -6.5,4.72 -9.33,6.72 L -19.68,1.14 C -11.76,-0.75 -3.64,-2.27 4.66,-3.47 3.13,-2.31 1.58,-1.15 0,0"
       style="fill:#e5d2a7;fill-opacity:1;fill-rule:nonzero;stroke:none"
       transform="matrix(1.3333333,0,0,-1.3333333,476.24,1673.5887)"
       clip-path="url(#clipPath64)" />
    <path
       id="path65"
       d="m 0,0 c -2.99,-4.64 -5.99,-8.57 -9,-11.79 0.52,-0.77 1.16,-1.83 1.92,-3.18 0.75,-1.36 1.47,-2.71 2.16,-4.06 0.69,-1.35 1.19,-2.45 1.52,-3.29 1.46,1.68 2.94,3.54 4.43,5.57 V -56.32 H 11.26 V -0.2 c 0.91,1.73 1.77,3.44 2.58,5.14 C 9.4,3.65 4.96,2.28 0.52,0.82 0.35,0.55 0.18,0.27 0,0"
       style="fill:#e5d2a7;fill-opacity:1;fill-rule:nonzero;stroke:none"
       transform="matrix(1.3333333,0,0,-1.3333333,391.0268,1492.3884)"
       clip-path="url(#clipPath66)" />
    <path
       id="path67"
       d="m 0,0 c -0.16,-0.69 -0.32,-1.37 -0.49,-2.04 -0.07,0.25 -0.14,0.49 -0.2,0.74 -1.72,6.68 -3.07,13.82 -4.03,21.41 0.2,0.55 0.4,1.11 0.59,1.68 H 3.26 C 2.57,13.85 1.48,6.59 0,0 m 6.54,-19.61 c -0.59,1.02 -1.15,2.07 -1.67,3.15 1.62,4.04 2.98,8.38 4.08,13.03 1.78,7.56 3.13,15.96 4.05,25.22 h 3.81 v 9.75 H -0.85 c -0.14,-0.02 -0.27,-0.04 -0.4,-0.06 -1.8,-0.27 -3.6,-0.56 -5.4,-0.86 -1.74,-0.29 -3.48,-0.59 -5.22,-0.9 -0.09,-0.33 -0.18,-0.66 -0.28,-0.98 -0.19,-0.62 -0.38,-1.23 -0.57,-1.83 -0.01,-0.03 -0.02,-0.05 -0.03,-0.08 -0.21,-0.63 -0.42,-1.24 -0.64,-1.85 -0.22,-0.6 -0.44,-1.2 -0.67,-1.78 -0.46,-1.17 -0.95,-2.29 -1.46,-3.37 -0.21,-0.43 -0.41,-0.85 -0.62,-1.26 -0.06,-0.12 -0.12,-0.23 -0.17,-0.35 -0.27,-0.52 -0.55,-1.02 -0.83,-1.52 -0.28,-0.5 -0.57,-0.99 -0.86,-1.47 v 13.35 c -2.79,-0.54 -5.58,-1.11 -8.36,-1.72 v -3.24 h -4.23 v 2.31 c -2.92,-0.65 -5.84,-1.34 -8.75,-2.07 v -0.24 h -0.95 c -3.79,-0.95 -7.57,-1.96 -11.35,-3.03 v -5.37 h 33.63 c -0.29,-0.48 -0.6,-0.96 -0.91,-1.43 -0.31,-0.47 -0.62,-0.93 -0.95,-1.37 0.72,-0.78 1.47,-1.76 2.26,-2.95 0.79,-1.19 1.58,-2.37 2.36,-3.53 0.79,-1.15 1.35,-2.12 1.67,-2.89 0.94,1.24 1.84,2.55 2.69,3.93 0.72,-4.33 1.55,-8.49 2.48,-12.48 0.85,-3.65 1.84,-7.1 3,-10.36 -0.67,-1.38 -1.37,-2.71 -2.12,-3.99 -3.31,-5.67 -7.75,-10.4 -13.32,-14.2 0.72,-0.58 1.55,-1.35 2.5,-2.32 0.95,-0.96 1.87,-1.93 2.76,-2.89 0.88,-0.97 1.52,-1.77 1.92,-2.42 5.37,4.1 9.79,8.96 13.26,14.59 3.1,-5.55 7.08,-10.16 11.91,-13.82 0.53,0.97 1.17,2 1.92,3.09 0.75,1.1 1.56,2.16 2.41,3.19 0.85,1.03 1.64,1.87 2.36,2.52 -4.72,3.02 -8.6,7.19 -11.65,12.5"
       style="fill:#e5d2a7;fill-opacity:1;fill-rule:nonzero;stroke:none"
       transform="matrix(1.3333333,0,0,-1.3333333,481.7068,1512.2953)"
       clip-path="url(#clipPath68)" />
    <path
       id="path69"
       d="m 457.9,236.679 h 39.78 v -5.41 H 457.9 Z m 52.41,7.92 h -64.15 v -21.35 h 64.15 z"
       style="fill:#e5d2a7;fill-opacity:1;fill-rule:nonzero;stroke:none"
       transform="matrix(1.3333333,0,0,-1.3333333,0,1935.12)"
       clip-path="url(#clipPath70)" />
    <path
       id="path71"
       d="m 0,0 c 4.21,1.32 8.28,2.8 12.19,4.44 3.92,1.64 7.55,3.3 10.91,4.98 L 15.6,15.98 12.93,15.5 H 9.68 V 15.41 H -46.88 V 6.42 H -5.76 C -6.42,6.19 -7.1,5.97 -7.79,5.75 c -3.62,-1.16 -7.18,-2.13 -10.66,-2.9 0.03,-0.03 0.07,-0.07 0.1,-0.1 h -0.1 V -1.4 h -38.1 v -9.86 h 38.1 v -1.21 c 4.18,0.35 8.39,0.74 12.63,1.16 0.15,0.02 0.29,0.03 0.44,0.05 12.42,1.24 25.11,2.74 38.05,4.45 V -1.4 H -4.73 C -3.14,-0.96 -1.56,-0.49 0,0"
       style="fill:#e5d2a7;fill-opacity:1;fill-rule:nonzero;stroke:none"
       transform="matrix(1.3333333,0,0,-1.3333333,653.04013,1663.1485)"
       clip-path="url(#clipPath72)" />
    <path
       id="path73"
       d="m 0,0 h -36.44 c -0.17,0.56 -0.36,1.14 -0.57,1.74 -0.79,2.25 -1.68,4.32 -2.66,6.18 L -51.81,5.89 C -51.02,4.11 -50.32,2.14 -49.7,0 H -86.16 V -9.75 H 0 Z"
       style="fill:#e5d2a7;fill-opacity:1;fill-rule:nonzero;stroke:none"
       transform="matrix(1.3333333,0,0,-1.3333333,694.49333,1590.1885)"
       clip-path="url(#clipPath74)" />
    <path
       id="path75"
       d="m 549.91,326.249 h -7.57 v 4.35 h 7.57 z m 0,-11.2 h -7.57 v 4.34 h 7.57 z m 10.72,4.34 h 7.67 v -4.34 h -7.67 z m 0,11.21 h 7.67 v -4.35 h -7.67 z m 27.93,-43.47 c 2.89,4.57 5.13,9.64 6.74,15.21 1.61,5.57 2.75,11.63 3.44,18.17 0.45,4.3 0.8,8.79 1.02,13.47 h 8.93 c -0.12,-5.88 -0.25,-11.1 -0.41,-15.65 -0.23,-6.57 -0.49,-11.93 -0.78,-16.08 -0.3,-4.16 -0.64,-7.34 -1.04,-9.57 -0.39,-2.22 -0.85,-3.72 -1.37,-4.49 -0.46,-0.58 -0.96,-1 -1.48,-1.25 -0.53,-0.26 -1.18,-0.39 -1.97,-0.39 -0.92,0 -2.26,0.03 -4.03,0.1 -1.77,0.06 -3.7,0.19 -5.8,0.38 0.92,-1.54 1.69,-3.38 2.31,-5.5 0.62,-2.13 0.97,-4 1.03,-5.61 2.36,-0.06 4.62,-0.08 6.79,-0.04 2.16,0.03 4,0.17 5.51,0.43 1.63,0.32 3.06,0.82 4.27,1.5 1.22,0.67 2.38,1.82 3.5,3.43 0.78,1.09 1.45,2.89 2.01,5.41 0.56,2.51 0.99,6 1.28,10.48 0.3,4.47 0.57,10.17 0.84,17.1 0.2,5.45 0.41,11.82 0.61,19.12 -2.11,0.38 -4.22,0.75 -6.32,1.12 -1.64,0.28 -3.28,0.57 -4.92,0.86 -2.95,0.51 -5.9,1.02 -8.84,1.52 -3.7,0.63 -7.4,1.26 -11.1,1.87 -3.09,0.52 -6.18,1.03 -9.27,1.52 v -6.26 h 9.11 c -0.15,-3.43 -0.36,-6.73 -0.65,-9.9 -0.52,-5.89 -1.47,-11.3 -2.85,-16.23 -1.38,-4.93 -3.34,-9.4 -5.9,-13.43 -0.44,-0.7 -0.91,-1.38 -1.42,-2.051 -5.62,-0.489 -11.27,-0.959 -16.92,-1.419 -0.08,-0.01 -0.17,-0.01 -0.25,-0.02 v 4.89 h 17.9 v 8.21 h -17.9 v 3.77 h 17.41 v 30.04 h -17.41 v 3.77 h 10.33 c -3.45,0.54 -6.89,1.07 -10.33,1.59 -3.58,0.54 -7.15,1.06 -10.72,1.57 -6.5,0.93 -12.99,1.81 -19.47,2.63 v -5.79 h 19.47 v -3.77 H 533 v -30.04 h 16.91 v -3.77 H 532.6 v -8.21 h 17.31 v -5.74 c -2.01,-0.15 -3.97,-0.3 -5.9,-0.44 -5.31,-0.38 -10.03,-0.71 -14.16,-0.97 l 1.38,-9.75 c 4.32,0.449 9.09,0.92 14.3,1.4 5.22,0.48 10.66,1.01 16.33,1.59 2.89,0.3 5.77,0.59 8.63,0.89 0.56,-0.45 1.13,-0.95 1.7,-1.51 1.01,-1 2,-2.05 2.95,-3.14 0.95,-1.1 1.72,-2.13 2.31,-3.1 4.52,3.48 8.23,7.51 11.11,12.08"
       style="fill:#e5d2a7;fill-opacity:1;fill-rule:nonzero;stroke:none"
       transform="matrix(1.3333333,0,0,-1.3333333,0,1935.12)"
       clip-path="url(#clipPath76)" />
    <path
       id="path77"
       d="m 0,0 c -1.78,-2.64 -4.2,-5.41 -7.26,-8.31 -3.05,-2.9 -6.69,-5.54 -10.9,-7.92 1.38,-0.64 2.89,-1.64 4.54,-2.99 1.64,-1.36 2.96,-2.61 3.95,-3.77 3.95,2.6 7.46,5.37 10.52,8.31 h 66.27 v 8.69 H 8.61 c 0.96,1.23 1.87,2.49 2.74,3.77 z"
       style="fill:#e5d2a7;fill-opacity:1;fill-rule:nonzero;stroke:none"
       transform="matrix(1.3333333,0,0,-1.3333333,797.28,1580.2687)"
       clip-path="url(#clipPath78)" />
    <path
       id="path79"
       d="m 607.14,232.519 h 6.12 v -6.37 h -6.12 z m 16.28,0 h 6.62 v -6.37 h -6.62 z m 16.78,0 h 6.42 v -6.37 h -6.42 z m -35.99,-23.07 c 3.37,0.54 6.75,1.08 10.15,1.63 12.25,1.98 24.67,3.99 37.28,5.99 6.37,1.01 12.79,2.02 19.26,3.02 v 6.06 h -12.93 v 6.37 h 9.47 v 9.18 h -9.47 v 7.15 h -11.35 v -7.15 h -6.42 v 6.76 h -10.16 v -6.76 h -6.62 v 6.76 h -10.16 v -6.76 h -6.12 v 6.96 h -11.06 v -6.96 h -10.16 v -9.18 h 10.16 v -6.37 h -15.49 v -9.08 h 17.44 c -1.86,-3.36 -4.39,-6.49 -7.57,-9.37 -0.21,-0.19 -0.42,-0.38 -0.63,-0.55 2.49,0.4 5,0.79 7.51,1.2 2.28,0.36 4.57,0.73 6.87,1.1"
       style="fill:#e5d2a7;fill-opacity:1;fill-rule:nonzero;stroke:none"
       transform="matrix(1.3333333,0,0,-1.3333333,0,1935.12)"
       clip-path="url(#clipPath80)" />
    <path
       id="path81"
       d="m 739.79,252.419 h 12.44 v -12.55 h -12.44 z m 12.73,-20.8 c 3.18,0.39 6.38,0.78 9.58,1.15 v 29.41 h -31.68 v -31.97 h 10.96 c 0.39,0.05 0.78,0.1 1.17,0.15 3.31,0.43 6.64,0.85 9.97,1.26"
       style="fill:#e5d2a7;fill-opacity:1;fill-rule:nonzero;stroke:none"
       transform="matrix(1.3333333,0,0,-1.3333333,0,1935.12)"
       clip-path="url(#clipPath82)" />
    <path
       id="path83"
       d="M 0,0 C 3.52,0.41 7.05,0.8 10.6,1.17 10.01,2.6 9.27,4.23 8.38,6.03 7.07,8.7 5.78,11.13 4.53,13.32 L -4.74,10.23 C -3.56,7.98 -2.36,5.47 -1.14,2.7 -0.72,1.75 -0.34,0.85 0,0"
       style="fill:#e5d2a7;fill-opacity:1;fill-rule:nonzero;stroke:none"
       transform="matrix(1.3333333,0,0,-1.3333333,1026.6667,1623.5352)"
       clip-path="url(#clipPath84)" />
    <path
       id="path85"
       d="m 0,0 -9.48,-2.23 c 1.05,-2.51 2.06,-5.25 3.01,-8.21 0.38,-1.19 0.72,-2.3 1,-3.34 3.42,0.36 6.84,0.71 10.28,1.04 C 4.42,-11.29 3.92,-9.68 3.3,-7.93 2.28,-5.03 1.18,-2.39 0,0"
       style="fill:#e5d2a7;fill-opacity:1;fill-rule:nonzero;stroke:none"
       transform="matrix(1.3333333,0,0,-1.3333333,1055.6133,1602.8019)"
       clip-path="url(#clipPath86)" />
    <path
       id="path87"
       d="M 0,0 -6.91,8.89 C -9.8,8.11 -13.09,7.37 -16.78,6.67 -20.46,5.96 -24.38,5.33 -28.52,4.78 -32.67,4.23 -36.86,3.75 -41.11,3.33 c -4.24,-0.42 -8.44,-0.82 -12.58,-1.2 0.59,-1.16 1.17,-2.6 1.72,-4.3 0.56,-1.71 0.94,-3.21 1.14,-4.49 5.59,0.32 11.42,0.75 17.47,1.3 6.05,0.55 11.96,1.27 17.72,2.17 C -9.89,-2.29 -4.67,-1.22 0,0"
       style="fill:#e5d2a7;fill-opacity:1;fill-rule:nonzero;stroke:none"
       transform="matrix(1.3333333,0,0,-1.3333333,1089.6933,1593.5352)"
       clip-path="url(#clipPath88)" />
    <path
       id="path89"
       d="M 0,0 C -0.92,-2.44 -1.88,-4.81 -2.86,-7.1 -3,-7.41 -3.13,-7.72 -3.27,-8.02 c 3.99,0.38 8,0.74 12.02,1.08 1.51,3.14 2.97,6.26 4.38,9.36 L 2.17,6.77 C 1.64,4.7 0.92,2.45 0,0"
       style="fill:#e5d2a7;fill-opacity:1;fill-rule:nonzero;stroke:none"
       transform="matrix(1.3333333,0,0,-1.3333333,1072.72,1608.4819)"
       clip-path="url(#clipPath90)" />
    <path
       id="path91"
       d="M 0,0 C -4.71,0.25 -9.41,0.54 -14.11,0.89 -15.74,0.99 -17.37,1.11 -19,1.25 -32.74,2.3 -46.42,3.68 -60.04,5.3 l 1.13,-7.72 c 5.7,0.39 12.11,0.84 19.23,1.35 6.14,0.45 12.51,0.93 19.11,1.44 -2.97,-1.66 -6.05,-3.21 -9.23,-4.67 -10.03,-4.61 -20.78,-8.33 -32.26,-11.16 0.85,-0.9 1.79,-2 2.81,-3.29 1.01,-1.28 2.01,-2.59 3,-3.91 0.98,-1.32 1.73,-2.46 2.26,-3.43 11.34,3.29 22.16,7.49 32.45,12.61 7.66,3.81 14.84,8.17 21.54,13.08 v -12.16 c 0,-0.9 -0.19,-1.52 -0.59,-1.84 -0.39,-0.32 -1.05,-0.48 -1.97,-0.48 -0.72,0 -1.88,-0.02 -3.49,-0.05 -1.6,-0.03 -3.44,-0.03 -5.5,0 -2.07,0.03 -4.12,0.11 -6.15,0.24 0.59,-1.09 1.16,-2.36 1.72,-3.81 0.56,-1.45 1.05,-2.92 1.47,-4.4 0.43,-1.48 0.74,-2.8 0.94,-3.96 4.72,-0.06 8.72,0.03 12,0.29 3.28,0.26 6,0.87 8.16,1.84 2.23,1.03 3.74,2.46 4.52,4.29 0.79,1.84 1.19,4.43 1.19,7.78 v 12.1 C 8.36,-0.42 4.43,-0.24 0.5,-0.03 0.34,-0.02 0.17,-0.01 0,0"
       style="fill:#e5d2a7;fill-opacity:1;fill-rule:nonzero;stroke:none"
       transform="matrix(1.3333333,0,0,-1.3333333,1115.4667,1531.6685)"
       clip-path="url(#clipPath92)" />
    <path
       id="path93"
       d="m 0,0 h 13.82 v -3.03 c 4.1,-0.12 8.22,-0.27 12.34,-0.45 v 13.91 h -35.3 c -0.47,1.2 -1.04,2.5 -1.71,3.92 -1.26,2.6 -2.41,4.97 -3.46,7.1 l -12.63,-3.38 c 1.05,-2.26 2.1,-4.75 3.16,-7.49 0.02,-0.05 0.04,-0.1 0.06,-0.15 H -60.3 V -3.32 c 3.87,0.15 7.75,0.27 11.64,0.38 V 0 h 16.58 c -0.1,-0.92 -0.21,-1.79 -0.34,-2.63 4.06,0.06 8.13,0.09 12.21,0.09 0.11,0.82 0.2,1.67 0.28,2.54 h 8.19 V -2.55 C -7.83,-2.58 -3.92,-2.62 0,-2.69 Z"
       style="fill:#e5d2a7;fill-opacity:1;fill-rule:nonzero;stroke:none"
       transform="matrix(1.3333333,0,0,-1.3333333,1250.5067,1607.962)"
       clip-path="url(#clipPath94)" />
    <path
       id="path95"
       d="M 0,0 4.18,6.13 C 1.06,5.15 -2.06,4.2 -5.17,3.29 -3.04,2.06 -1.31,0.97 0,0"
       style="fill:#e5d2a7;fill-opacity:1;fill-rule:nonzero;stroke:none"
       transform="matrix(1.3333333,0,0,-1.3333333,1382.8532,1508.8819)"
       clip-path="url(#clipPath96)" />
    <path
       id="path97"
       d="m 0,0 c 2,3.42 3.97,6.89 5.9,10.44 1.94,3.54 3.76,6.98 5.46,10.33 L 2.71,28.5 C 0.74,24.77 -1.36,21.01 -3.59,17.25 -5.82,13.48 -8,9.94 -10.13,6.62 -12.26,3.3 -14.21,0.42 -15.98,-2.02 l 9.93,-7.83 C -4.01,-6.69 -2,-3.41 0,0"
       style="fill:#e5d2a7;fill-opacity:1;fill-rule:nonzero;stroke:none"
       transform="matrix(1.3333333,0,0,-1.3333333,1381.6,1552.8019)"
       clip-path="url(#clipPath98)" />
    <path
       id="path99"
       d="m 1038.66,253.779 h 15.19 v -5.03 h -15.19 z m 0,-12.85 h 15.19 v -5.51 h -12.55 c 7.87,-0.99 15.77,-2.09 23.71,-3.31 v 30.07 h -38.1 v -25.06 c 3.91,-0.43 7.82,-0.89 11.75,-1.37 z"
       style="fill:#e5d2a7;fill-opacity:1;fill-rule:nonzero;stroke:none"
       transform="matrix(1.3333333,0,0,-1.3333333,0,1935.12)"
       clip-path="url(#clipPath100)" />
    <path
       id="path101"
       d="m 1094.18,290.319 h -29.5 v 14.1 h 29.5 z m -17.55,48.01 c -0.87,-0.35 -1.74,-0.69 -2.61,-1.03 -8.78,-3.42 -17.54,-6.56 -26.26,-9.42 v -0.56 h 26.26 v -12.37 h -20.16 v -39.12 h 10.82 v 3.96 h 29.5 v -3.48 h 11.31 v 38.64 h -20.26 v 12.37 h 25.18 v 11.01 h -25.18 v 3.49 c -2.87,-1.201 -5.73,-2.36 -8.6,-3.49"
       style="fill:#e5d2a7;fill-opacity:1;fill-rule:nonzero;stroke:none"
       transform="matrix(1.3333333,0,0,-1.3333333,0,1935.12)"
       clip-path="url(#clipPath102)" />
    <path
       id="path103"
       d="m 1082.87,240.929 h 15.79 v -5.7 h -15.79 z m 0,12.85 h 15.79 v -5.03 h -15.79 z m -11.25,-22.71 c 7.87,-1.26 15.77,-2.65 23.71,-4.15 1.11,-0.21 2.22,-0.42 3.33,-0.64 3.97,-0.76 7.96,-1.56 11.95,-2.4 v 38.3 h -38.99 z"
       style="fill:#e5d2a7;fill-opacity:1;fill-rule:nonzero;stroke:none"
       transform="matrix(1.3333333,0,0,-1.3333333,0,1935.12)"
       clip-path="url(#clipPath104)" />
    <path
       id="path105"
       d="m 0,0 c -1.57,-2.26 -3.26,-4.43 -5.06,-6.52 -1.81,-2.09 -3.59,-3.95 -5.36,-5.56 0.52,-0.7 1.11,-1.62 1.77,-2.75 0.65,-1.13 1.29,-2.25 1.91,-3.38 0.63,-1.13 1.14,-2.08 1.53,-2.85 3.28,2.96 6.59,6.57 9.93,10.82 3.35,4.25 6.2,8.47 8.56,12.65 L 3.84,6.38 C 2.85,4.38 1.58,2.25 0,0"
       style="fill:#e172a3;fill-opacity:1;fill-rule:nonzero;stroke:none"
       transform="matrix(1.3333333,0,0,-1.3333333,393.84,1454.9087)"
       clip-path="url(#clipPath106)" />
    <path
       id="path107"
       d="m 0,0 v 45.33 l -1.42,7.28 H -34.37 L -19.19,0 Z"
       style="fill:#e172a3;fill-opacity:1;fill-rule:nonzero;stroke:none"
       transform="matrix(1.3333333,0,0,-1.3333333,425.61333,1402.8953)"
       clip-path="url(#clipPath108)" />
    <path
       id="path109"
       d="M 0,0 C 4.44,1.46 8.88,2.83 13.32,4.12 14.23,6 15.07,7.86 15.85,9.71 L 6.9,13.28 C 5.06,8.8 2.75,4.37 0,0"
       style="fill:#e172a3;fill-opacity:1;fill-rule:nonzero;stroke:none"
       transform="matrix(1.3333333,0,0,-1.3333333,391.72013,1491.2953)"
       clip-path="url(#clipPath110)" />
    <path
       id="path111"
       d="M 0,0 V 17.2 H -8.07 V 1.84 -3.03 c 3.78,1.07 7.56,2.08 11.35,3.03 z"
       style="fill:#e172a3;fill-opacity:1;fill-rule:nonzero;stroke:none"
       transform="matrix(1.3333333,0,0,-1.3333333,423.61333,1480.8019)"
       clip-path="url(#clipPath112)" />
    <path
       id="path113"
       d="m 0,0 h -8.75 v -25.46 c 2.91,0.73 5.83,1.42 8.75,2.07 z"
       style="fill:#e172a3;fill-opacity:1;fill-rule:nonzero;stroke:none"
       transform="matrix(1.3333333,0,0,-1.3333333,440.92,1446.5352)"
       clip-path="url(#clipPath114)" />
    <path
       id="path115"
       d="m 0,0 h -8.36 v -13.76 c 2.78,0.61 5.57,1.18 8.36,1.72 z"
       style="fill:#e172a3;fill-opacity:1;fill-rule:nonzero;stroke:none"
       transform="matrix(1.3333333,0,0,-1.3333333,457.7068,1458.1352)"
       clip-path="url(#clipPath116)" />
    <path
       id="path117"
       d="M 0,0 C 0.13,0.02 0.26,0.04 0.4,0.06 H 0.01 C 1.33,5.28 2.4,10.64 3.21,16.1 l -9.83,1.74 c -0.87,-6.86 -2.21,-13.39 -4,-19.6 1.74,0.31 3.48,0.61 5.22,0.9 1.8,0.3 3.6,0.59 5.4,0.86"
       style="fill:#e172a3;fill-opacity:1;fill-rule:nonzero;stroke:none"
       transform="matrix(1.3333333,0,0,-1.3333333,480.04013,1470.3219)"
       clip-path="url(#clipPath118)" />
    <path
       id="path119"
       d="m 0,0 -3.74,20.02 c -2,10.03 -3.23,15.81 -3.7,17.35 H -42.66 C -47.62,22.64 -50.73,10.69 -52,1.55 v -16.79 h 17.25 c 4.95,13.97 8.1,23.17 9.45,27.59 2.97,-10.31 6.39,-19.51 10.27,-27.59 h 42.35 l 15.1,52.61 H 9.47 C 5.09,25.19 1.93,12.74 0,0"
       style="fill:#e172a3;fill-opacity:1;fill-rule:nonzero;stroke:none"
       transform="matrix(1.3333333,0,0,-1.3333333,502.50667,1382.5753)"
       clip-path="url(#clipPath120)" />
    <path
       id="path121"
       d="m 481.95,451.779 h -28.57 v -52.61 h 28.57 z"
       style="fill:#e172a3;fill-opacity:1;fill-rule:nonzero;stroke:none"
       transform="matrix(1.3333333,0,0,-1.3333333,0,1935.12)"
       clip-path="url(#clipPath122)" />
    <path
       id="path123"
       d="m 508.49,431.279 h -20.87 v -10.01 h 20.87 z"
       style="fill:#e172a3;fill-opacity:1;fill-rule:nonzero;stroke:none"
       transform="matrix(1.3333333,0,0,-1.3333333,0,1935.12)"
       clip-path="url(#clipPath124)" />
    <path
       id="path125"
       d="m 509.94,451.779 h -22.32 v -10.53 h 22.32 z"
       style="fill:#e172a3;fill-opacity:1;fill-rule:nonzero;stroke:none"
       transform="matrix(1.3333333,0,0,-1.3333333,0,1935.12)"
       clip-path="url(#clipPath126)" />
    <path
       id="path127"
       d="m 512.19,409.699 h -24.57 v -10.53 h 24.57 z"
       style="fill:#e172a3;fill-opacity:1;fill-rule:nonzero;stroke:none"
       transform="matrix(1.3333333,0,0,-1.3333333,0,1935.12)"
       clip-path="url(#clipPath128)" />
    <path
       id="path129"
       d="m 583.25,451.779 h -33.92 v -52.61 h 33.92 z"
       style="fill:#e172a3;fill-opacity:1;fill-rule:nonzero;stroke:none"
       transform="matrix(1.3333333,0,0,-1.3333333,0,1935.12)"
       clip-path="url(#clipPath130)" />
    <path
       id="path131"
       d="m 0,0 c 3.44,-0.52 6.88,-1.05 10.33,-1.59 h 8.55 v -1.37 c 3.09,-0.49 6.18,-1 9.27,-1.52 3.7,-0.61 7.4,-1.24 11.1,-1.87 2.94,-0.5 5.89,-1.01 8.84,-1.52 1.64,-0.29 3.28,-0.58 4.92,-0.86 2.1,-0.37 4.21,-0.74 6.32,-1.12 0.06,1.98 0.11,4.03 0.17,6.14 V 1.41 H 39.46 c 0.11,6.45 0.18,13.21 0.18,20.28 H 28.33 C 28.33,14.54 28.3,7.77 28.24,1.41 H 18.98 V 6.82 H 0 v 4.73 c 1.3,0.13 2.6,0.28 3.89,0.43 5.14,0.62 9.78,1.34 13.91,2.18 l -5.11,8.6 C 9.93,22.18 6.87,21.64 3.49,21.16 0.12,20.68 -3.46,20.24 -7.23,19.86 -11,19.47 -14.82,19.13 -18.69,18.84 -22.55,18.55 -26.32,18.31 -30,18.12 c 0.6,-1.16 1.14,-2.53 1.63,-4.11 0.49,-1.58 0.83,-2.98 1.03,-4.2 4.92,0.13 10.06,0.37 15.44,0.73 0.39,0.03 0.79,0.05 1.18,0.09 V 6.82 H -30.19 V 4.2 C -23.71,3.38 -17.22,2.5 -10.72,1.57 -7.15,1.06 -3.58,0.54 0,0"
       style="fill:#e172a3;fill-opacity:1;fill-rule:nonzero;stroke:none"
       transform="matrix(1.3333333,0,0,-1.3333333,747.50667,1477.5219)"
       clip-path="url(#clipPath132)" />
    <path
       id="path133"
       d="m 680.73,399.169 h 28.25 v 52.61 h -28.25 z"
       style="fill:#e172a3;fill-opacity:1;fill-rule:nonzero;stroke:none"
       transform="matrix(1.3333333,0,0,-1.3333333,0,1935.12)"
       clip-path="url(#clipPath134)" />
    <path
       id="path135"
       d="m 0,0 c 2.74,0.9 4.66,2.15 5.76,3.74 1.1,1.59 1.65,4.75 1.65,9.47 v 18.43 c 0,4.98 -0.37,8.32 -1.13,10.02 -0.75,1.7 -2.63,3.24 -5.64,4.63 -3,1.39 -7.4,2.38 -13.17,2.99 -4.7,0.5 -12.93,0.79 -24.69,0.88 v -8.97 c 3.7,0 6.23,-0.16 7.57,-0.47 1.34,-0.32 2.2,-0.81 2.58,-1.48 0.37,-0.67 0.56,-2.2 0.56,-4.58 V 14.22 c 0,-3.51 -0.56,-5.66 -1.69,-6.45 -1.13,-0.79 -4.14,-1.19 -9.02,-1.19 v -9 h 8.86 c 8.11,0 14.18,0.18 18.21,0.54 C -6.12,-1.53 -2.74,-0.9 0,0"
       style="fill:#e172a3;fill-opacity:1;fill-rule:nonzero;stroke:none"
       transform="matrix(1.3333333,0,0,-1.3333333,1002.4933,1399.6685)"
       clip-path="url(#clipPath136)" />
    <path
       id="path137"
       d="m 0,0 c 3.39,-1.84 7.86,-3.22 13.42,-4.14 2.77,-0.46 5.71,-0.8 8.82,-1.03 V 48.96 C 18.88,48.71 15.76,48.34 12.89,47.83 7.36,46.86 2.97,45.46 -0.28,43.64 -3.53,41.82 -5.46,39.81 -6.08,37.61 -6.7,35.41 -7.01,31.67 -7.01,26.39 v -9 c 0,-5.42 0.33,-9.21 0.97,-11.38 C -5.4,3.85 -3.38,1.84 0,0"
       style="fill:#e172a3;fill-opacity:1;fill-rule:nonzero;stroke:none"
       transform="matrix(1.3333333,0,0,-1.3333333,1073.8133,1397.0019)"
       clip-path="url(#clipPath138)" />
    <path
       id="path139"
       d="m 836.6,341.709 h -34.13 v 5.6 h 34.13 z m 0,-14.1 h -34.13 v 5.79 h 34.13 z m 0,-10.28 c -0.9,-0.79 -1.82,-1.57 -2.75,-2.33 -0.23,-0.19 -0.46,-0.381 -0.7,-0.56 -5,-0.28 -10.03,-0.56 -15.09,-0.84 -5.4,-0.3 -10.6,-0.57 -15.59,-0.81 v 6.41 h 34.13 z m 12.3,13.1 v 26.83 h -24.63 c 1.58,2.609 3.07,5.29 4.46,8.02 l -14.55,1.54 c -0.53,-2.31 -1.31,-4.87 -2.36,-7.68 -0.24,-0.64 -0.48,-1.271 -0.72,-1.88 h -20.53 v -45.02 c -5.44,-0.24 -10.29,-0.46 -14.55,-0.67 l 0.54,-3.68 c 13.62,-1.62 27.3,-3 41.04,-4.05 1.63,-0.14 3.26,-0.26 4.89,-0.36 4.7,-0.35 9.4,-0.64 14.11,-0.89 0.17,-0.01 0.34,-0.02 0.5,-0.03 3.93,-0.21 7.86,-0.39 11.8,-0.53 v 10.38 c 6.22,5.9 11.69,12.45 16.42,19.64 l -11.51,5.41 c -1.52,-2.42 -3.16,-4.76 -4.91,-7.03"
       style="fill:#e172a3;fill-opacity:1;fill-rule:nonzero;stroke:none"
       transform="matrix(1.3333333,0,0,-1.3333333,0,1935.12)"
       clip-path="url(#clipPath140)" />
    <path
       id="path141"
       d="m 0,0 c -3.39,1.84 -7.86,3.22 -13.42,4.14 -5.56,0.92 -11.83,1.39 -18.81,1.39 -1.48,0 -2.92,-0.02 -4.32,-0.06 V -4.55 h 0.01 c 0.05,0.07 0.1,0.12 0.15,0.16 0.08,0.07 0.16,0.13 0.25,0.18 0.94,0.56 2.3,0.83 4.07,0.83 2.1,0 3.48,-0.34 4.15,-1.02 0.67,-0.68 1.01,-2.25 1.01,-4.7 v -24.17 c 0,-3.1 -0.33,-5.06 -0.97,-5.89 -0.65,-0.82 -2.12,-1.23 -4.43,-1.23 -0.33,0 -0.65,0.01 -0.95,0.03 -0.21,0 -0.4,0.02 -0.59,0.04 -0.88,0.08 -1.56,0.25 -2.07,0.5 -0.13,0.06 -0.25,0.13 -0.35,0.2 -0.11,0.08 -0.2,0.16 -0.28,0.24 v -9.84 c 1.41,-0.05 2.85,-0.07 4.32,-0.07 7.36,0 13.8,0.48 19.34,1.46 5.53,0.97 9.92,2.37 13.17,4.19 3.25,1.82 5.18,3.83 5.8,6.03 0.62,2.2 0.93,5.94 0.93,11.23 v 9 c 0,5.41 -0.33,9.2 -0.97,11.37 C 5.39,-3.84 3.38,-1.84 0,0"
       style="fill:#e172a3;fill-opacity:1;fill-rule:nonzero;stroke:none"
       transform="matrix(1.3333333,0,0,-1.3333333,1159.7601,1338.6419)"
       clip-path="url(#clipPath142)" />
    <path
       id="path143"
       d="m 939.55,451.779 h -22.69 v -52.61 h 22.69 z"
       style="fill:#e172a3;fill-opacity:1;fill-rule:nonzero;stroke:none"
       transform="matrix(1.3333333,0,0,-1.3333333,0,1935.12)"
       clip-path="url(#clipPath144)" />
    <path
       id="path145"
       d="M 0,0 -19.02,23.69 V -5 L -1.37,-28.92 H 28.36 V 23.69 L 0,23.69 Z"
       style="fill:#e172a3;fill-opacity:1;fill-rule:nonzero;stroke:none"
       transform="matrix(1.3333333,0,0,-1.3333333,1285.6533,1364.3352)"
       clip-path="url(#clipPath146)" />
    <path
       id="path147"
       d="m 0,0 h 0.01 c 3.11,0.91 6.23,1.86 9.35,2.84 l 2.41,3.53 c -1.38,0.91 -3.18,1.92 -5.41,3.05 -2.23,1.12 -4.53,2.27 -6.89,3.43 -2.36,1.16 -4.46,2.12 -6.29,2.89 L -13.21,7.15 C -11.25,6.18 -9.08,5.05 -6.72,3.77 -4.36,2.48 -2.13,1.22 0,0"
       style="fill:#e172a3;fill-opacity:1;fill-rule:nonzero;stroke:none"
       transform="matrix(1.3333333,0,0,-1.3333333,1375.9467,1504.4952)"
       clip-path="url(#clipPath148)" />
    <path
       id="path149"
       d="M 0,0 C 2.1,-1.22 3.8,-2.31 5.11,-3.28 L 12.1,6.09 C 10.72,6.99 8.93,8.02 6.74,9.18 4.54,10.34 2.29,11.5 0,12.66 c -2.3,1.16 -4.36,2.19 -6.2,3.09 l -6.68,-8.4 C -10.98,6.31 -8.89,5.14 -6.59,3.82 -4.29,2.5 -2.1,1.23 0,0"
       style="fill:#e172a3;fill-opacity:1;fill-rule:nonzero;stroke:none"
       transform="matrix(1.3333333,0,0,-1.3333333,1381.8,1469.0817)"
       clip-path="url(#clipPath150)" />
    <path
       id="path151"
       d="m 0,0 c 2.58,-1.64 6.36,-3.02 11.33,-4.14 3.58,-0.81 7.35,-1.32 11.31,-1.54 V 48.66 C 16.89,48.24 11.93,47.4 7.77,46.16 1.41,44.27 -2.45,42.18 -3.79,39.91 -5.13,37.63 -5.8,33.98 -5.8,28.96 V 13.33 C -5.8,9.71 -5.48,6.99 -4.84,5.19 -4.19,3.38 -2.58,1.65 0,0"
       style="fill:#e172a3;fill-opacity:1;fill-rule:nonzero;stroke:none"
       transform="matrix(1.3333333,0,0,-1.3333333,1384.5865,1396.6153)"
       clip-path="url(#clipPath152)" />
    <path
       id="path153"
       d="m 0,0 c 2.87,1.13 5.73,2.29 8.6,3.49 v 9.79 c 1.85,0.36 3.69,0.75 5.51,1.16 5.83,1.32 11.14,2.88 15.93,4.68 l -9.05,9.09 C 18.24,27.11 15.09,26.09 11.55,25.16 8.01,24.23 4.21,23.38 0.14,22.6 -3.92,21.83 -8.1,21.15 -12.4,20.57 c -4.29,-0.58 -8.54,-1.09 -12.73,-1.54 0.65,-1.29 1.32,-2.92 2.01,-4.88 0.69,-1.97 1.13,-3.62 1.33,-4.97 5.84,0.51 11.82,1.19 17.95,2.02 0.41,0.06 0.82,0.11 1.23,0.18 V 0 h -26.26 v -10.45 c 8.72,2.86 17.48,6 26.26,9.42 0.87,0.34 1.74,0.68 2.61,1.03"
       style="fill:#e172a3;fill-opacity:1;fill-rule:nonzero;stroke:none"
       transform="matrix(1.3333333,0,0,-1.3333333,1435.5067,1484.0152)"
       clip-path="url(#clipPath154)" />
    <path
       id="path155"
       d="m 0,0 c -1.99,2.26 -6.26,4.22 -12.81,5.87 -6.56,1.64 -14.8,2.47 -24.73,2.47 -1.43,0 -2.81,-0.02 -4.16,-0.06 V -3.67 c 0.19,1.05 0.5,1.76 0.93,2.13 0.75,0.65 2.18,0.97 4.27,0.97 2.42,0 3.95,-0.38 4.59,-1.14 0.65,-0.75 0.97,-2.64 0.97,-5.65 v -4.78 H 2.98 v 2.28 C 2.98,-5.55 1.99,-2.26 0,0"
       style="fill:#e172a3;fill-opacity:1;fill-rule:nonzero;stroke:none"
       transform="matrix(1.3333333,0,0,-1.3333333,1477.9333,1342.3884)"
       clip-path="url(#clipPath156)" />
    <path
       id="path157"
       d="m 0,0 h 6.85 v -6.24 c 0,-2.45 -0.44,-4.1 -1.33,-4.94 -0.89,-0.85 -2.57,-1.27 -5.04,-1.27 -2.25,0 -3.76,0.37 -4.51,1.12 -0.44,0.44 -0.75,1.15 -0.93,2.14 v -12.15 c 4.38,0.05 8.2,0.45 11.48,1.2 3.52,0.82 6.44,2.04 8.75,3.66 l 3.14,-3.77 H 39.72 V 7.99 L 0,7.99 Z"
       style="fill:#e172a3;fill-opacity:1;fill-rule:nonzero;stroke:none"
       transform="matrix(1.3333333,0,0,-1.3333333,1428.9467,1375.8953)"
       clip-path="url(#clipPath158)" />
    <path
       id="path159"
       d="M 0,0 H 23.02 C 15.12,3 7.45,6.46 0,10.4 Z"
       style="fill:#dfb3be;fill-opacity:1;fill-rule:nonzero;stroke:none"
       transform="matrix(1.3333333,0,0,-1.3333333,380.24,1660.1219)"
       clip-path="url(#clipPath160)" />
    <path
       id="path161"
       d="m 0,0 c -2.73,-2.38 -5.68,-4.64 -8.83,-6.76 -3.16,-2.13 -6.32,-4.03 -9.48,-5.7 0.99,-0.65 2.06,-1.43 3.21,-2.37 1.15,-0.93 2.32,-1.91 3.5,-2.95 1.19,-1.02 2.17,-1.96 2.96,-2.8 3.23,1.81 6.52,3.95 9.87,6.43 3.36,2.48 6.58,5.1 9.68,7.87 3.09,2.77 5.88,5.54 8.39,8.31 L 6.66,6.76 C 4.95,4.64 2.73,2.38 0,0"
       style="fill:#dfb3be;fill-opacity:1;fill-rule:nonzero;stroke:none"
       transform="matrix(1.3333333,0,0,-1.3333333,405.44,1674.1619)"
       clip-path="url(#clipPath162)" />
    <path
       id="path163"
       d="m 0,0 c -8.3,1.2 -16.42,2.72 -24.34,4.61 l -0.41,-0.22 c 2.97,-2.19 6.09,-4.62 9.38,-7.29 3.29,-2.68 6.43,-5.3 9.43,-7.87 2.99,-2.58 5.38,-4.83 7.15,-6.77 l 11.75,6.77 C 10.92,-8.78 8.32,-6.52 5.16,-4.01 3.47,-2.67 1.75,-1.33 0,0"
       style="fill:#dfb3be;fill-opacity:1;fill-rule:nonzero;stroke:none"
       transform="matrix(1.3333333,0,0,-1.3333333,482.45333,1678.2152)"
       clip-path="url(#clipPath164)" />
    <path
       id="path165"
       d="m 0,0 c 0,-0.71 -0.18,-1.19 -0.55,-1.45 -0.36,-0.26 -1.03,-0.42 -2.02,-0.48 h -3.31 c -1.67,0 -3.58,0.01 -5.72,0.04 -2.14,0.04 -4.16,0.09 -6.07,0.15 0.79,-1.35 1.56,-2.9 2.32,-4.64 0.75,-1.74 1.33,-3.34 1.73,-4.83 4.34,0 8.15,0.05 11.45,0.15 3.29,0.09 6.05,0.47 8.29,1.11 2.37,0.71 4.04,1.75 5.03,3.14 0.99,1.38 1.48,3.49 1.48,6.33 v 6.8 C 8.39,5.9 4.18,5.51 0,5.16 Z"
       style="fill:#dfb3be;fill-opacity:1;fill-rule:nonzero;stroke:none"
       transform="matrix(1.3333333,0,0,-1.3333333,628.44,1686.6552)"
       clip-path="url(#clipPath166)" />
    <path
       id="path167"
       d="M 0,0 V 4.45 C -12.94,2.74 -25.63,1.24 -38.05,0 Z"
       style="fill:#dfb3be;fill-opacity:1;fill-rule:nonzero;stroke:none"
       transform="matrix(1.3333333,0,0,-1.3333333,696.6,1678.1619)"
       clip-path="url(#clipPath168)" />
    <path
       id="path169"
       d="m 0,0 c -0.44,-0.5 -0.89,-0.99 -1.36,-1.47 -0.52,0.56 -1.1,1.15 -1.75,1.76 C -4.32,1.45 -5.62,2.61 -7,3.77 -7.73,4.38 -8.45,4.96 -9.14,5.49 l 0.11,0.11 c 0.29,0.29 0.57,0.58 0.83,0.87 H 4.41 C 3.19,4.12 1.72,1.97 0,0 M 9.08,14.01 H 6.83 c -3.4,-0.55 -6.78,-1.09 -10.15,-1.63 -2.3,-0.37 -4.59,-0.74 -6.87,-1.1 -2.51,-0.41 -5.02,-0.8 -7.51,-1.2 -3.32,-2.92 -6.93,-5.34 -10.82,-7.28 0.79,-0.58 1.63,-1.29 2.52,-2.12 0.88,-0.84 1.76,-1.71 2.61,-2.61 0.86,-0.9 1.55,-1.64 2.07,-2.22 1.95,1.17 3.86,2.48 5.73,3.95 0.47,-0.4 0.95,-0.82 1.43,-1.25 1.35,-1.22 2.62,-2.43 3.8,-3.62 0.76,-0.77 1.42,-1.51 1.96,-2.21 -0.85,-0.57 -1.74,-1.1 -2.65,-1.61 -4.28,-2.38 -8.98,-4.28 -14.12,-5.7 0.73,-0.57 1.52,-1.36 2.37,-2.36 0.86,-1 1.66,-2.01 2.42,-3.04 0.76,-1.03 1.33,-1.97 1.73,-2.81 5.39,1.81 10.44,4.19 15.15,7.15 4.7,2.96 8.83,6.7 12.39,11.21 3.55,4.5 6.31,9.82 8.29,15.94 l -6.42,2.8 z"
       style="fill:#dfb3be;fill-opacity:1;fill-rule:nonzero;stroke:none"
       transform="matrix(1.3333333,0,0,-1.3333333,810.04,1672.3619)"
       clip-path="url(#clipPath170)" />
    <path
       id="path171"
       d="m 0,0 h -9.06 c 0.77,2.19 1.54,4.47 2.3,6.85 0.12,0.36 0.23,0.72 0.35,1.07 H 0 Z M 11.16,7.92 H 24.98 V 16.8 H 11.16 v 4.64 H 0 V 16.8 H -19.93 V 14.2 7.92 h 2.7 c -0.07,-0.26 -0.16,-0.52 -0.24,-0.78 -0.92,-2.89 -1.86,-5.71 -2.81,-8.45 -0.95,-2.74 -1.86,-5.2 -2.71,-7.39 H 0 V -19.03 H 11.16 V -8.7 H 26.95 V 0 H 11.16 Z"
       style="fill:#dfb3be;fill-opacity:1;fill-rule:nonzero;stroke:none"
       transform="matrix(1.3333333,0,0,-1.3333333,859.51987,1675.962)"
       clip-path="url(#clipPath172)" />
    <path
       id="path173"
       d="M 0,0 V 3.02 C -6.47,2.02 -12.89,1.01 -19.26,0 Z"
       style="fill:#dfb3be;fill-opacity:1;fill-rule:nonzero;stroke:none"
       transform="matrix(1.3333333,0,0,-1.3333333,894.5332,1645.6952)"
       clip-path="url(#clipPath174)" />
    <path
       id="path175"
       d="m 0,0 v 12.16 h 9.48 v 9.95 H 0 v 10.34 h 9.58 v 2.56 C 6.38,34.64 3.18,34.25 0,33.86 -3.33,33.45 -6.66,33.03 -9.97,32.6 c -0.39,-0.05 -0.78,-0.1 -1.17,-0.15 h 1.17 V -3 c -1.24,-0.36 -2.46,-0.72 -3.65,-1.07 V 25.39 H -22.9 V -6.69 c -1.14,-0.31 -2.22,-0.59 -3.25,-0.86 l 2.96,-10.82 c 4.93,1.61 10.46,3.43 16.58,5.46 6.12,2.03 12.17,4.04 18.16,6.04 L 9.68,2.98 C 6.46,1.98 3.23,0.99 0,0"
       style="fill:#dfb3be;fill-opacity:1;fill-rule:nonzero;stroke:none"
       transform="matrix(1.3333333,0,0,-1.3333333,1003.36,1671.4417)"
       clip-path="url(#clipPath176)" />
    <path
       id="path177"
       d="M 0,0 9.77,3.57 C 9.56,4.18 9.31,4.83 9.03,5.52 5.48,5.15 1.95,4.76 -1.57,4.35 -0.91,2.72 -0.39,1.27 0,0"
       style="fill:#dfb3be;fill-opacity:1;fill-rule:nonzero;stroke:none"
       transform="matrix(1.3333333,0,0,-1.3333333,1028.7601,1629.3352)"
       clip-path="url(#clipPath178)" />
    <path
       id="path179"
       d="M 0,0 9.97,2.61 C 9.81,3.42 9.61,4.29 9.35,5.23 5.91,4.9 2.49,4.55 -0.93,4.19 -0.51,2.63 -0.2,1.23 0,0"
       style="fill:#dfb3be;fill-opacity:1;fill-rule:nonzero;stroke:none"
       transform="matrix(1.3333333,0,0,-1.3333333,1049.5599,1626.7617)"
       clip-path="url(#clipPath180)" />
    <path
       id="path181"
       d="m 0,0 9.18,-3.96 c 1.52,2.51 3.13,5.54 4.84,9.08 0.19,0.39 0.38,0.78 0.56,1.17 C 10.56,5.95 6.55,5.59 2.56,5.21 1.71,3.29 0.85,1.55 0,0"
       style="fill:#dfb3be;fill-opacity:1;fill-rule:nonzero;stroke:none"
       transform="matrix(1.3333333,0,0,-1.3333333,1064.9467,1626.1219)"
       clip-path="url(#clipPath182)" />
    <path
       id="path183"
       d="M 0,0 H 13.32 V -8.11 H 0.79 v -9.86 h 12.53 v -9.66 h -27.54 v 9.66 h 11.55 v 9.95 h -11.55 v 9.83 c 0.91,0.37 1.84,0.75 2.77,1.14 3.75,1.58 7.2,3.3 10.36,5.17 l -8.39,7.72 c -1.91,-1.54 -4.34,-3.15 -7.3,-4.83 -2.96,-1.67 -5.89,-3.15 -8.79,-4.44 v -47.62 h 11.35 v 3.28 h 27.54 v -2.61 H 24.47 V 10.05 L 0,10.05 Z"
       style="fill:#dfb3be;fill-opacity:1;fill-rule:nonzero;stroke:none"
       transform="matrix(1.3333333,0,0,-1.3333333,1055.6133,1646.602)"
       clip-path="url(#clipPath184)" />
    <path
       id="path185"
       d="M 0,0 H 11.64 V 10.29 C 7.75,10.18 3.87,10.06 0,9.91 Z"
       style="fill:#dfb3be;fill-opacity:1;fill-rule:nonzero;stroke:none"
       transform="matrix(1.3333333,0,0,-1.3333333,1170.1067,1625.602)"
       clip-path="url(#clipPath186)" />
    <path
       id="path187"
       d="m 0,0 c -0.63,-2.45 -1.86,-4.51 -3.7,-6.19 -1.85,-1.67 -4.66,-3.04 -8.44,-4.1 -3.79,-1.07 -8.93,-1.89 -15.45,-2.47 0.73,-0.77 1.47,-1.73 2.22,-2.89 0.76,-1.16 1.45,-2.32 2.07,-3.48 0.63,-1.16 1.04,-2.22 1.24,-3.19 7.56,0.97 13.62,2.27 18.16,3.91 4.54,1.65 8.01,3.71 10.41,6.19 2.4,2.47 4.08,5.44 5.04,8.88 0.58,2.1 1.03,4.39 1.35,6.88 C 8.82,3.54 4.75,3.51 0.69,3.45 0.5,2.22 0.27,1.07 0,0"
       style="fill:#dfb3be;fill-opacity:1;fill-rule:nonzero;stroke:none"
       transform="matrix(1.3333333,0,0,-1.3333333,1206.36,1616.0684)"
       clip-path="url(#clipPath188)" />
    <path
       id="path189"
       d="M 0,0 H 27.04 V 10.72 H -38.89 V 0 h 26.35 v -15.56 h -37.51 v -10.91 h 86.76 v 10.91 l -36.71,0 z"
       style="fill:#dfb3be;fill-opacity:1;fill-rule:nonzero;stroke:none"
       transform="matrix(1.3333333,0,0,-1.3333333,1236.96,1663.4685)"
       clip-path="url(#clipPath190)" />
    <path
       id="path191"
       d="M 0,0 H 12.34 V 7.92 C 8.22,8.1 4.1,8.25 0,8.37 Z"
       style="fill:#dfb3be;fill-opacity:1;fill-rule:nonzero;stroke:none"
       transform="matrix(1.3333333,0,0,-1.3333333,1268.9333,1623.1619)"
       clip-path="url(#clipPath192)" />
    <path
       id="path193"
       d="m 0,0 c -1.05,-0.19 -2.53,-0.37 -4.44,-0.53 -1.91,-0.16 -3.59,-0.24 -5.04,-0.24 h -14.7 c -1.45,0 -2.37,0.29 -2.77,0.87 -0.39,0.58 -0.59,1.54 -0.59,2.9 v 9.09 c -3.92,0.07 -7.83,0.11 -11.74,0.14 V 3.09 c 0,-3.47 0.42,-6.24 1.28,-8.3 0.85,-2.07 2.37,-3.55 4.54,-4.45 2.17,-0.9 5.23,-1.35 9.18,-1.35 h 15.3 c 1.84,0 3.71,0.05 5.62,0.14 1.91,0.1 3.36,0.31 4.35,0.63 -0.2,1.42 -0.38,3.11 -0.55,5.07 C 0.28,-3.2 0.13,-1.48 0,0"
       style="fill:#dfb3be;fill-opacity:1;fill-rule:nonzero;stroke:none"
       transform="matrix(1.3333333,0,0,-1.3333333,1287.2265,1627.6685)"
       clip-path="url(#clipPath194)" />
    <path
       id="path195"
       d="m 0,0 c -7.94,1.22 -15.84,2.32 -23.71,3.31 l -2.64,0.33 c -3.93,0.48 -7.84,0.94 -11.75,1.37 v -61.98 h 11.75 V -5 H 0 Z"
       style="fill:#dfb3be;fill-opacity:1;fill-rule:nonzero;stroke:none"
       transform="matrix(1.3333333,0,0,-1.3333333,1420.0133,1625.6419)"
       clip-path="url(#clipPath196)" />
    <path
       id="path197"
       d="M 0,0 H 23.71 C 15.77,1.5 7.87,2.89 0,4.15 Z"
       style="fill:#dfb3be;fill-opacity:1;fill-rule:nonzero;stroke:none"
       transform="matrix(1.3333333,0,0,-1.3333333,1428.8267,1632.5619)"
       clip-path="url(#clipPath198)" />
    <path
       id="path199"
       d="m 1076.36,206.919 h -16.29 v 5.8 h 16.29 z m 0,-14.2 h -16.29 v 5.99 h 16.29 z m 22.3,-3.67 c 0,-0.83 -0.16,-1.41 -0.49,-1.74 -0.33,-0.32 -0.95,-0.48 -1.87,-0.48 -0.6,0 -1.58,-0.02 -2.97,-0.05 -1.38,-0.03 -2.94,-0.03 -4.68,0 -0.38,0.01 -0.76,0.02 -1.14,0.03 v 34.51 h -38.2 v -42.12 h 10.76 v 4.93 h 24.66 c 0.11,-0.26 0.21,-0.54 0.31,-0.82 0.53,-1.45 0.99,-2.89 1.39,-4.3 0.39,-1.42 0.65,-2.71 0.78,-3.87 4.28,0 7.88,0.13 10.81,0.39 2.93,0.26 5.41,0.87 7.45,1.83 1.98,0.97 3.33,2.36 4.05,4.16 0.73,1.8 1.09,4.25 1.09,7.34 v 35.02 c -3.99,0.84 -7.98,1.64 -11.95,2.4 z"
       style="fill:#dfb3be;fill-opacity:1;fill-rule:nonzero;stroke:none"
       transform="matrix(1.3333333,0,0,-1.3333333,0,1935.12)"
       clip-path="url(#clipPath200)" />
  </g>
</svg>
